<?xml version="1.0" encoding="UTF-8"?>
<svg id="Calque_2" data-name="Calque 2" xmlns="http://www.w3.org/2000/svg" viewBox="0 0 229.12 341.31">
  <defs>
    <style>
      .cls-1 {
        fill: #696969;
      }

      .cls-2 {
        fill: #fbfafa;
      }

      .cls-3 {
        fill: #fefdfe;
      }

      .cls-4 {
        fill: #818181;
      }

      .cls-5 {
        fill: #b0acb0;
      }

      .cls-6 {
        fill: #161517;
      }

      .cls-7 {
        fill: #242424;
      }

      .cls-8 {
        fill: #212121;
      }

      .cls-9 {
        fill: #08090a;
      }

      .cls-10 {
        fill: #101012;
      }

      .cls-11 {
        fill: #424242;
      }

      .cls-12 {
        fill: #0e0e0e;
      }

      .cls-13 {
        fill: #19191a;
      }

      .cls-14 {
        fill: #545454;
      }

      .cls-15 {
        fill: #464646;
      }

      .cls-16 {
        fill: #878888;
      }

      .cls-17 {
        fill: #5b5b5b;
      }

      .cls-18 {
        fill: #292929;
      }

      .cls-19 {
        fill: #595959;
      }

      .cls-20 {
        fill: #2d2d2d;
      }

      .cls-21 {
        fill: #313131;
      }

      .cls-22 {
        fill: #353435;
      }

      .cls-23 {
        fill: #3d3c3c;
      }

      .cls-24 {
        fill: #393839;
      }

      .cls-25 {
        fill: #616161;
      }

      .cls-26 {
        fill: #494948;
      }

      .cls-27 {
        fill: #777;
      }

      .cls-28 {
        fill: #525151;
      }

      .cls-29 {
        fill: #4e4e4e;
      }
    </style>
  </defs>
  <g id="Calque_1-2" data-name="Calque 1">
    <g>
      <path class="cls-13" d="m92.84,261.5c-.67-.33-1.33-.66-2-1-1.98-4.71-5.67-4.01-9.26-3.66-.17.68-.35,1.37-.53,2.06,2.93.53,5.86,1.07,8.79,1.61,0,.99,0,1.99.01,2.99-.34,1.33-.67,2.66-1,3.99-3.83,1.19-7.88,3.75-11.42,3.17-3.39-.56-6.24-4.39-8.63-6.23.62-2.5,1.04-4.18,1.46-5.86-1.9.28-3.94.24-5.67.96-1.25.52-2.82,1.97-2.94,3.14-.16,1.5.74,4.32,1.63,4.51,6.6,1.42,10.45,5.86,13.6,11.28-.03,5.21-1.08,10.88,5.82,12.97,2.1,2.3,1.06,4.21-.73,6.03-1.77-1.21-3.55-2.41-5.61-3.81-4.2,16.07-8.32,31.86-12.45,47.66h-21.95c-.7-1.72-1.4-3.43-2.14-5.24.58-1.3,2.13-3.07,1.85-4.48-1.15-5.73,2.23-10.29,3.38-15.4,1.08-4.76,3.57-9.56,3.23-14.18-.36-5.04.26-8.78,4.53-11.76-1.94-.74-3.41-1.3-4.88-1.86.64-4.61,1.28-9.22,1.92-13.83v-.02s.06-.09.09-.13c.83-1.2,1.68-2.38,2.52-3.57.28-.4.56-.8.84-1.2,1.12-1.59,2.2-3.2,3.19-4.86,1.31-2.18,1.42-5.44,3.17-6.93,5-4.25,11.25-5.3,17.73-4.96,3.61-5.67,9.78-7.21,13.46-3.37-1.17.16-2.33.33-3.5.49-.02.65-.04,1.29-.06,1.94,4.18.19,8.35.38,12.53.58,1.04,4.19-1.46,7.4-6.98,8.97Z"/>
      <path class="cls-3" d="m89.89,278.48l-.02.02h0l.02-.02Z"/>
      <path class="cls-10" d="m202.57,279.46c0,1.99-.01,3.98-.02,5.97h-.01c-.49.42-1.3.76-1.41,1.27-1.93,8.53-3.76,17.09-5.61,25.64-.31.68-.62,1.36-.93,2.03-.33,1-.66,1.99-.98,2.98-2,7.99-4,15.97-6,23.96h-3c.06-1.33.11-2.66.17-3.98.56-.43,1.12-.86,1.68-1.28-.56-.58-1.12-1.16-1.68-1.74-3.4-16.65-6.63-33.34-10.28-49.94-1.23-5.63-4.15-10.53-9.84-13.07.97-2.52-.9-5.77,2-7.79.34-1.04.67-2.08,1.01-3.12.67-.07,1.35-.14,2.02-.21,1.97.16,3.93.32,5.9.48-.03.31-.06.63-.09.95-1.43,4.23-2.22,8.18,2.16,11.53,1.48,1.14,2.39,3.42,2.92,5.36,2.14,7.91,4.04,15.89,6.01,23.85.9,3.65,1.74,7.32,2.61,10.99.46-.11.92-.22,1.37-.32,2.99-11.2,5.97-22.39,8.95-33.58,1.02.01,2.04.01,3.05.02Z"/>
      <path class="cls-12" d="m96.94,320.43l-.04.04s0-.02.02-.03c.01,0,.01-.01.02-.01Z"/>
      <path class="cls-12" d="m117.89,335.28c-.04,2.01-.07,4.02-.11,6.03h-6.99c.06-.34.13-.68.19-1.02-.34-1.32-.67-2.65-1.01-3.97v-1.01c-.34-1-.67-1.99-1-2.98v-1.01c-1-3.99-2-7.98-3-11.96.01-.34.01-.68.01-1.01-.34-1-.68-1.99-1.01-2.98-.07-.63-.13-1.26-.2-1.89-.26-.36-.52-.73-.78-1.09-.63-1.09-1.27-2.18-2.5-4.29-1.57,4.6-2.71,7.94-3.84,11.27-.24.36-.49.72-.73,1.07-1.65.74-2.74,1.45-3.28,2.17-.07.09-.14.19-.19.28t-.01.01c-.05.09-.09.18-.12.27-.04.1-.07.19-.08.29-.02.09-.03.19-.03.28,0,.8.59,1.66,1.74,2.64-.11.99-.22,1.98-.32,2.97-.25.37-.5.74-.75,1.11.04.32-.04.61-.22.87-5.54,1.42-4.27,6.14-4.81,9.98h-3c-.27-1.33-.54-2.65-.81-3.98-.01-.34-.01-.67-.02-1.01,3.2-1.35,3.14-3.83,2.31-6.58.24-.8.48-1.6.73-2.4.32-.99.65-1.98.97-2.98,0-.33,0-.67,0-1.01.92-2.67,1.84-5.33,2.77-8,.41-1.32.82-2.65,1.23-3.97.24-.68.48-1.35.73-2.03.08-.32.17-.64.25-.96.25-.68.49-1.36.73-2.04.09-.32.19-.64.28-.95.24-1.01.49-2.02.73-3.03.42-1.32.84-2.64,1.26-3.96.24-.68.48-1.35.72-2.03.06-.33.15-.65.27-.96.27-1,.55-2,.82-3,0-1.32,0-2.65-.01-3.98-.26-1.33-.52-2.66-.79-4-.11-.64-.22-1.28-.33-1.93-.23-.68-.46-1.37-.69-2.06v-1.02c1.44-2.26,12.06-5.79,14.86-4.94-1.09,3.33-2.19,6.66-3.29,9.98-.24.35-.49.7-.73,1.05-.09.65-.18,1.3-.27,1.95-.24.35-.48.7-.73,1.05.33,2.61.67,5.21,1,7.82.24.35.49.7.73,1.06.44,1.99.88,3.98,1.31,5.97.25.67.51,1.35.76,2.03.06,1.3.12,2.61.19,3.91.24.35.47.7.71,1.05.1.98.19,1.96.29,2.93.25.36.5.71.75,1.07.08.97.16,1.95.25,2.93.59,1.35,1.19,2.71,1.79,4.07.07,1.63.13,3.26.2,4.9.24.35.48.71.72,1.06.1.98.19,1.95.28,2.92.7,1.68,1.39,3.36,2.08,5.04Z"/>
      <path class="cls-7" d="m215.37,246.55c-2.42,9.94-4.87,19.86-7.25,29.81-1.15,4.79-2.15,9.61-3.21,14.43-.39,1.21-.78,2.42-1.17,3.63-2.57,10.7-5.15,21.39-7.69,32.09-.29,1.24-.34,2.54-.5,3.81-.26.67-.53,1.34-.8,2.01-.38,2.99-.77,5.98-1.16,8.98h-5.98c2-7.99,4-15.97,6-23.96.32-.99.65-1.98.98-2.98.31-.67.62-1.35.93-2.03.14.09.27.23.42.24.14.02.4-.07.42-.15,2.07-9,4.13-18,6.18-27h.01c.67-1.99,1.34-3.98,2.01-5.96-.33-1-.67-2-1-3,.33-2,.67-3.99,1-5.99.67-.66,1.33-1.33,1.99-2,.36-2.87.72-5.74,1.23-9.8.15-.2,2.24-1.9,1.95-2.86-1.22-3.95,2.1-6.17,2.83-9.3.94.01,1.88.02,2.81.03Z"/>
      <path class="cls-3" d="m96.94,320.43l-.04.04s0-.02.02-.03c.01,0,.01-.01.02-.01Z"/>
      <path class="cls-8" d="m81.97,297.46c-2.69,9.32-5.33,18.65-8.1,27.94-.63,2.12-2.17,4.04-2.51,6.17-.52,3.19-.35,6.48-.47,9.74h-6.98c4.13-15.8,8.25-31.59,12.45-47.66,2.06,1.4,3.84,2.6,5.61,3.81Z"/>
      <path class="cls-18" d="m48.28,302.01c.34,4.62-2.15,9.42-3.23,14.18-1.15,5.11-4.53,9.67-3.38,15.4.28,1.41-1.27,3.18-1.85,4.48.74,1.81,1.44,3.52,2.14,5.24h-8.98c-1.01-3.66-2.03-7.31-3.04-10.96,2.03,2.24,4.06,4.47,6.25,6.89,1.12-3.79,2.31-7.03,3.01-10.38,2.68-12.81,5.2-25.66,7.78-38.5l.47.09.48-.06c1.47.56,2.94,1.12,4.88,1.86-4.27,2.98-4.89,6.72-4.53,11.76Z"/>
      <path class="cls-10" d="m93.66,331.33c-.94,3.32-1.88,6.65-2.82,9.98h-1.99c.54-3.84-.73-8.56,4.81-9.98Z"/>
      <path class="cls-10" d="m85.85,341.31h-1.99c.39-1.33.78-2.65,1.18-3.98.27,1.33.54,2.65.81,3.98Z"/>
      <path class="cls-6" d="m46.98,288.36c-2.58,12.84-5.1,25.69-7.78,38.5-.7,3.35-1.89,6.59-3.01,10.38-2.19-2.42-4.22-4.65-6.25-6.89-2.33-4.62-4.65-9.25-6.98-13.88-.5-2.81.07-6.24-3.96-7.08-.33-.67-.65-1.33-.97-2-.66-1.33-1.33-2.66-2-3.99-.35-.66-.69-1.32-1.04-1.98-.97-2.01-1.95-4.01-2.92-6.02h-.02c-.66-1.34-1.33-2.66-1.99-3.98-2.03-3.97-4.07-7.95-6.1-11.92,4.39-6.29,4.16-8.09-1.02-12.68v-10.34c.14-.34.11-.65-.11-.94.41-.73.82-1.45,1.24-2.18.24-.27.49-.55.74-.82,4.01-2.49,7.79-5.53,12.08-7.36,9.88-4.2,20.02-7.81,30.05-11.66-.33,2.35-.67,4.69-1,7.04-2.19,1.67-4.39,3.35-6.76,5.16,1.71.66,3.04,1.17,5.29,2.03-8.07,1.26-12.38,4.15-10.78,13.13-3.65-1.21-6.84-2.27-10.04-3.33-.22.32-.44.64-.66.95,2.05,3.01,4.1,6.01,6.15,9.02-.29.27-.58.55-.87.82-2.85-.95-5.71-1.9-8.56-2.85-.25.47-.5.94-.75,1.41,2.04,1.74,4.07,3.48,6.11,5.21-3.87-.48-7.42-1.9-11.07-3.03-1.08-.34-2.41.15-3.62.26.42,1.3.53,3.49,1.3,3.74,5.06,1.68,10.19,3.39,15.44,4.2,4.45.68,9.09.16,13.64.18,2.08,3.63,4.15,7.26,6.22,10.9Z"/>
      <path class="cls-6" d="m182.53,35.02c-.26.01-.52.05-.77.11-.69-.36-1.39-.72-2.08-1.07-.02-1-.03-2-.04-3-1.64-6.02-5.99-9.76-10.94-12.99-.35-.32-.7-.65-1.05-.97-2.01-1.24-4.02-2.49-6.03-3.73-.65-.08-1.3-.16-1.95-.24-1.99-.34-3.98-.69-5.98-1.03-3.33,0-6.67-.02-10-.03-2.12.66-4.22,1.41-6.37,1.92-.45.11-1.11-.67-1.67-1.04,3.08-6.97,8.52-10.49,16.04-10.98h4c11.63,1.29,21.22,6.1,25.43,17.56,1.73,4.7,1.01,10.3,1.41,15.49Z"/>
      <path class="cls-18" d="m126.78,158.77c-2,5.32-4.01,10.63-6.01,15.95-2.33,6.33-4.66,12.66-6.99,18.99-.33-.01-.65-.01-.98,0-3.02-2.68-6.03-5.36-9.04-8.04,1.73-4.98,3.46-9.96,5.2-14.93,7.4-.63,10.21-4.28,8.97-11.26-.61-3.37-.54-6.87-1.27-10.2-.36-1.62-1.85-3-2.83-4.48.04-.65.09-1.29.13-1.94l.75-3.93c.38-1.7.75-3.4,1.13-5.1,1.31-.01,2.63-.01,3.94-.01,0,3.32,0,6.65,0,9.97.09,3.06-.16,6.2.53,9.12.16.68,3.54.6,5.44.87.34,1.66.69,3.33,1.04,4.99Z"/>
      <path class="cls-18" d="m161.66,102.88c-1.58,2.83-3.16,5.66-4.92,8.81-.71-.9-1.33-1.69-2.3-2.9-1.4,1.79-2.47,3.35-3.74,4.73-.85.92-1.99,1.57-2.99,2.35l-.02-.02c.2-1.19.39-2.38.42-2.56-3.46-.51-6.44-.94-9.42-1.38h0c-.24-.54-.48-1.07-.72-1.59-.41.51-.83,1.03-1.24,1.54-.35,1.31-.7,2.63-1.05,3.94-.32.35-.65.69-.97,1.04-2.59-.86-5.88,3.77-7.96-1.04.22-1.45.64-2.91.61-4.37-.11-4.51-.4-9.03-.61-13.55.65-1.01,1.31-2.03,1.97-3.05.29-.32.57-.65.86-.98.39-.24.77-.48,1.16-.73.94-.09,1.87-.19,2.81-.29.38.03.75.06,1.13.08.35.37.7.73,1.05,1.1.3.3.59.61.89.92.07.63.14,1.26.2,1.89-5.13,5.09-8.17,11.11-8.64,19.68,3.95-6.59,7.27-12.12,10.58-17.65.64.03,1.28.05,1.91.08,1.13,5.87,1.8,6.26,7.49,3.16.15-.09.3-.17.46-.26h0c.23,2.49.46,4.96.68,7.44.87-.09,1.74-.18,2.61-.28-.1-1.66.12-3.43-.38-4.97-.77-2.34-.7-3.85,2.13-4.16-.17,1.2-.34,2.39-.52,3.59.4.29.8.58,1.2.88,1.1-1.16,2.2-2.32,3.31-3.48h.44s.44.01.44.01c1.04.67,2.09,1.34,3.13,2.02Z"/>
      <path class="cls-21" d="m214.05,237.73c.38-.02,1.84-.09,3.29-.16-.32.99-.64,1.98-.96,2.98-1.61.33-3.22.67-4.84,1.01-.33,1-.66,2-1,3.01-1.02,1.43-2.05,2.85-3.1,4.32-4.81-7.7-7.31-9.94-13.8-12.36,1.44-1.33,2.05-2.51,1.81-3.53-.03-.14-.07-.27-.14-.41-.09-.2-.22-.39-.38-.58l-.18-.18c-.5-.5-1.25-.93-2.24-1.32h-.01c.07-.25.14-.49.22-.74.15-.49.3-.97.47-1.44.17-.47.36-.93.56-1.37.3-.67.65-1.3,1.05-1.89,1.08-1.56,2.56-2.8,4.77-3.48.46,1.37,1.47,2.82,1.29,4.11-.39,2.75-1.39,5.42-2.22,8.43,2.28-.72,3.6-1.14,4.93-1.55.67,5.25,4.1,2.12,4.69.86,1.23-2.64,1.81-5.87,1.67-8.81-.2-4.12,2.67-8.19,5.75-7.07.56,2.34,1.12,4.68,1.69,7.03-2.06-.01-4.08-.22-3.72,3.03.36,3.3.28,6.64.4,10.11Z"/>
      <path class="cls-15" d="m219.49,190.66c-.27.67-.53,1.34-.79,2.01-.07,2.32-.15,4.64-.23,6.96-.36.35-.73.69-1.09,1.03-2.48.56-6.26.33-7.19,1.84-2.52,4.07-4.48,8.75-5.43,13.43-1.09,5.41-.85,11.09-1.19,16.65-1.33.41-2.65.83-4.93,1.55.83-3.01,1.83-5.68,2.22-8.43.18-1.29-.83-2.74-1.29-4.11-1.33-1.34-2.66-2.68-3.99-4.02.33-.34.65-.67.97-1.01,1.33-1.32,2.66-2.64,3.99-3.96.02-.98.04-1.97.06-2.96.33-.33.65-.66.98-1h0c.32-.34.64-.67.96-1.01.62-.7,1.24-1.4,1.86-2.1.06-.62.13-1.25.2-1.87.53-1.47,1.05-2.93,1.57-4.39,1.57-4.37,3.11-8.67,4.56-12.7,3,1.08,5.81,2.09,8.63,3.1.04.33.08.66.12.99Z"/>
      <path class="cls-24" d="m217.7,201.65c-.67,5.3-1.35,10.61-2.02,15.91-3.08-1.12-5.95,2.95-5.75,7.07.14,2.94-.44,6.17-1.67,8.81-.59,1.26-4.02,4.39-4.69-.86.34-5.56.1-11.24,1.19-16.65.95-4.68,2.91-9.36,5.43-13.43.93-1.51,4.71-1.28,7.19-1.84.1.33.21.66.32.99Z"/>
      <path class="cls-24" d="m141.55,62.66c3.49.2,6.36.37,9.24.53-3.48.69-6.97,1.35-10.44,2.08-.93.2-1.81.6-2.71.91-7.29-5.7-8.42-13.63-8.01-22.12,1.21.66,2.37,1.54,3.67,1.87.7.18,1.65-.59,2.48-.93,1.36.39,2.72.78,4.08,1.18.7,5.43,4.89,3.35,7.95,3.69.34.68.67,1.36,1.01,2.03-.04.36-.09.72-.13,1.08h-9.57c.64,1.52,1.82,2.69,3.14,2.9,2.41.38,4.9.18,7.36.23.66.93,1.32,1.87,1.98,2.8-3.39.28-7.28-.88-10.05,3.75Z"/>
      <path class="cls-25" d="m214.59,102.91c-1.01.75-2.23,1.33-2.97,2.29-1.07,1.37-1.79,3.01-3.23,5.55-3.69-5.5-6.61-9.86-9.29-13.85-.17-2.56-.35-5.27-.53-7.98,1.26-3.23,3.6-3.04,6.34-2.2.74.23,1.75-.4,2.63-.64,2.27,2.29,4.54,4.57,6.81,6.86-.38,1.43-1.12,2.88-1.04,4.29.1,1.91.82,3.79,1.28,5.68Z"/>
      <path class="cls-12" d="m109.77,212.59c-.68.89-1.36,1.77-2.04,2.65-.65.44-1.3.88-1.95,1.32-.3.04-.6.05-.89.03-.36-.33-.72-.66-1.08-.99-3.7-3.76-8.42-3.02-12.98-2.95-2.4-2.14-4.46-3.16-8.2-1.71-4.19,1.63-9.15,1.26-13.78,1.76-.32-.09-.65-.11-.98-.08,2.47-5.33,4.81-10.8,12-10.95,6.68,3.65,11.59,11.43,20.89,8.91,3.19.42,3.14-1.73,3.09-3.88.01-.69.01-1.37.02-2.06.34-.31.67-.63,1.01-.95,1.29-.01,2.59-.02,3.89-.03.33.68.65,1.35.97,2.03.01,2.3.02,4.6.03,6.9Z"/>
      <path class="cls-29" d="m227.69,121.84c0,.67-.01,1.33-.01,2-.78,1.67-1.57,3.33-2.35,5-1.92.99-3.84,1.98-5.76,2.98-.67-3.01-1.33-6.01-2-9.01-.35-2.93,1.1-6.55-3.07-8.02-1.74-2.22-3.45-5.66-.53-6.81,4.76-1.86,2.02-3.22.62-5.07-.46-1.89-1.18-3.77-1.28-5.68-.08-1.41.66-2.86,1.04-4.29,2.13,3.32,4.25,6.63,6.38,9.94.01.63.01,1.27.02,1.9-4.66,3.22-.17,7.14-.81,10.66,1.9.13,3.8.25,5.7.38.35.35.7.7,1.04,1.05.26.37.53.73.79,1.09.07,1.29.15,2.59.22,3.88Z"/>
      <path class="cls-23" d="m219.37,189.67c-2.82-1.01-5.63-2.02-8.63-3.1-1.45,4.03-2.99,8.33-4.56,12.7-.53,1.45-1.05,2.92-1.58,4.38-4-2.33-8.01-4.66-12.01-7,.01-.67.03-1.34.05-2.01,2.07.86,4.13,1.78,6.23,2.59,2.34.89,3.82.37,3.64-2.5.69-.35,1.38-.71,2.07-1.06,4.3-2,0-3.97-.02-5.96-1.32-2.01-2.64-4.02-3.95-6.04-.04-.32-.04-.65-.03-.98.67-1.66,1.33-3.33,2-4.99.65,1.34,1.31,2.68,1.97,4.02.49,1.87.98,3.73,1.47,5.6.5-.07,1-.14,1.51-.21v-5.43c0-.65,0-1.3,0-1.95-.31-1.67-.62-3.34-.93-5.01,0-.99,0-1.99-.02-2.98,1.65,1.32,3.3,2.64,4.95,3.96.05,5.16,3.4,10.27,7.84,11.97,0,1.34,0,2.67.01,4Z"/>
      <path class="cls-26" d="m103.87,204.64c-.01.69-.01,1.37-.02,2.06-1.03,1.29-2.06,2.58-3.09,3.88-9.3,2.52-14.21-5.26-20.89-8.91.8-.32,1.58-.77,2.41-.95,4.7-1.02,9.38-2.06,11.49-7.21.94,2.23,1.39,4.93,2.95,6.57,1.9,1.99,4.73,3.08,7.15,4.56Z"/>
      <path class="cls-13" d="m169.61,62.94c-1.35,1.34-2.7,2.68-4.04,4.02-.65.32-1.29.65-1.94.98-1.98,1-3.97,2.01-5.95,3.02-2.33.67-4.65,1.35-6.98,2.02-2.69-1.32-5.38-2.64-8.08-3.97-1.66-.94-3.32-1.89-4.98-2.83.9-.31,1.78-.71,2.71-.91,3.47-.73,6.96-1.39,10.44-2.08.62-.1,1.25-.19,1.87-.29,2.13.06,4.39.59,6.36.07,3.41-.9,6.64-2.45,10.35-3.88.1,1.61.17,2.73.24,3.85Z"/>
      <path class="cls-12" d="m151.53,104.02c.5,1.54.28,3.31.38,4.97-.87.1-1.74.19-2.61.28-.22-2.48-.45-4.96-.67-7.44-.31-.64-.61-1.29-.92-1.93-1.36-2-2.72-3.99-4.08-5.98h0c.07-.32.12-.62.16-.91.45-3.86-2.14-6.09-5.04-8.14,1.29-1.32,2.59-2.64,3.88-3.96,2.48-.87,4.17-.6,5.31,2.3,1.2,3.05,3.12,5.82,4.73,8.71.33,2.65.66,5.3.99,7.94-2.83.31-2.9,1.82-2.13,4.16Z"/>
      <path class="cls-24" d="m222.46,149.76c-.25.67-.5,1.34-.76,2.01-.42,6.31-.83,12.62-1.25,18.93-.25,1.67-.51,3.34-.76,5.01-.11,1.67-.21,3.33-.32,5-.61-.79-1.25-1.56-1.82-2.37-2-2.86-3.98-5.73-5.97-8.59.32-1.67.64-3.33.95-5,1.01-1.2,2.48-2.24,2.92-3.62.96-3.04,1.4-6.24,2.05-9.38.34-1.65.68-3.31,1.01-4.96,1.26,0,2.51,0,3.76.01.07.98.13,1.97.19,2.96Z"/>
      <path class="cls-14" d="m207.54,86.08c-.88.24-1.89.87-2.63.64-2.74-.84-5.08-1.03-6.34,2.2-1.65-.33-3.3-.67-4.95-1-.01-1.64-.03-3.28-.04-4.93-.66-1.35-1.32-2.69-1.98-4.04l.42-.23-.19-.19-.23.42c-1.78.57-3.56,1.13-5.22,1.66-.68-1.41-1.22-2.53-1.76-3.65-1-1-2-2-3.01-3,.01-1,.01-1.99.01-2.99.69-1.01,1.38-2.02,2.06-3.03,1.29,2.02,2.58,4.03,3.87,6.04,1.02.61,2.04,1.21,3.05,1.81,7.29.73,11.99,5.72,16.94,10.29Z"/>
      <path class="cls-24" d="m108.96,170.74c1.29-8.17,2.57-16.34,3.9-24.5.09-.52.63-.96.97-1.44.98,1.48,2.47,2.86,2.83,4.48.73,3.33.66,6.83,1.27,10.2,1.24,6.98-1.57,10.63-8.97,11.26Z"/>
      <path class="cls-24" d="m112.8,193.71c-1.01.99-2.02,1.99-3.03,2.98-1.31-.01-2.63-.02-3.95-.02-.54-.7-1.13-2-1.63-1.97-2.1.13-4.18.67-6.26,1.06.02.53.05,1.06.07,1.58,2.27,1.1,4.54,2.19,6.82,3.29.02,1.02.04,2.04.06,3.06-.34.32-.67.64-1.01.95-2.42-1.48-5.25-2.57-7.15-4.56-1.56-1.64-2.01-4.34-2.95-6.57.66-.29,1.31-.58,1.97-.88.36-.27.72-.54,1.09-.8,2.31-2.06,4.62-4.11,6.93-6.16,3.01,2.68,6.02,5.36,9.04,8.04Z"/>
      <path class="cls-22" d="m126.75,97.88c-2.55,6.84-2.86,13.78-1.06,20.84-.32.38-.64.76-.96,1.13-1.03-.73-2.05-1.45-3.38-2.4-.22,1.29-.4,2.36-.58,3.42-.91-2.22-1.83-4.45-2.73-6.68-.72-1.76-1.41-3.53-2.11-5.29,1.98-2.87,3.73-5.96,6.04-8.54,1.91-2.15,4.47-3.71,6.75-5.53-.66,1.02-1.32,2.04-1.97,3.05Z"/>
      <path class="cls-22" d="m165.9,76.05c-1.41,2.29-2.82,4.59-4.22,6.88-1,1.35-1.99,2.7-2.98,4.04-1.84-3.17-3.68-6.34-5.08-8.77-3.33-.47-6.1-.86-8.86-1.26-.71-2.64-1.43-5.28-2.14-7.93,2.7,1.33,5.39,2.65,8.08,3.97.93.66,1.8,1.76,2.79,1.9,4.12.55,8.27.81,12.41,1.17Z"/>
      <path class="cls-7" d="m153.62,78.2c-3.33-.47-6.1-.86-8.86-1.26-.71,1.33-1.42,2.65-2.13,3.97,2.48-.87,4.17-.6,5.31,2.3,1.2,3.05,3.12,5.82,4.73,8.71.96.56,1.92,1.12,3.06,1.78.02-.01.49-.39.96-.77h.01c.65-1.34,1.31-2.67,1.98-4.01,0-.65.01-1.3.02-1.95-1.84-3.17-3.68-6.34-5.08-8.77Zm1.31,9.8c.04-.12.08-.23.12-.34.11,0,.26-.02.3.04.06.09.06.23.08.35-.17-.02-.34-.04-.5-.05Z"/>
      <path class="cls-11" d="m176.84,52.02c-.48,1.99-.96,3.97-1.43,5.96-1.23.03-2.46.05-3.68.08-.9-.33-1.95-1.13-2.66-.9-4.53,1.46-8.99,3.14-13.46,4.76,1.62-1.67,2.98-3.81,4.93-4.9,4.57-2.56,9.42-4.61,14.16-6.86.34-.04.68-.08,1.02-.12.37.66.74,1.32,1.12,1.98Z"/>
      <path class="cls-11" d="m143.69,12.07v3h-.01c-1.99,2.68-3.98,5.34-5.96,8h0c-.99.68-1.99,1.35-2.99,2.02-.97.35-1.94.69-2.91,1.03-.36-.02-.72-.03-1.09-.05,1.64-4.37,3.29-8.75,4.93-13.12.56.37,1.22,1.15,1.67,1.04,2.15-.51,4.25-1.26,6.37-1.92Z"/>
      <path class="cls-7" d="m3.96,279.5c-3.39-7.4-5.95-14.87-1.86-22.88.28-.07.56-.12.84-.14v10.34c5.18,4.59,5.41,6.39,1.02,12.68Z"/>
      <path class="cls-10" d="m122.78,132.83c0,.33,0,.67,0,1h-2.02c-.39-.68-.77-1.36-1.16-2.04-.59-1.32-1.18-2.63-1.78-3.95-.01-.02-.02-.04-.03-.06l.04.03c-.97-3.98-1.95-7.95-2.93-11.93.35-2.33.69-4.66,1.04-6.98.7,1.76,1.39,3.53,2.11,5.29.9,2.23,1.82,4.46,2.73,6.68.33,1.32.66,2.64.99,3.97,0,.66-.01,1.33-.01,1.99.34,2,.69,4,1.03,6Z"/>
      <path class="cls-23" d="m137.74,36.13c-2.94.64-5.88,1.27-8.82,1.9.6-3.99,1.2-7.97,1.8-11.96.37.02.73.03,1.09.05,3.63,2.36,5.15,5.97,5.93,10.01Z"/>
      <path class="cls-11" d="m225.33,128.84c-.28,2.65-.55,5.31-.83,7.96-.27.67-.54,1.34-.8,2-.48,2.67-.95,5.33-1.43,8-1.25-.01-2.5-.01-3.76-.01.01-.33.02-.67.03-1v-2c.34-3.99.68-7.98,1.03-11.97,1.92-1,3.84-1.99,5.76-2.98Z"/>
      <path class="cls-25" d="m68.76,221.56c-3.31-1.71-1.02-5.49-2.87-7.74-.67.23-1.35.46-2.03.68-.67.33-1.33.65-2,.98-.67.33-1.33.66-2,.99.53,1.74,1.3,3.45,1.5,5.23.1.91-.82,1.93-1.27,2.9-.25,1.01-.49,2.02-.74,3.03,1.58.02,3.16.04,4.74.06.6-.02,1.21-.05,1.82-.08.91-1.08,1.83-2.16,2.74-3.23.07-.3.12-.59.16-.9-.02-.64-.03-1.28-.05-1.92Zm-6.05-1.39c-.2-.09-.24-.52-.35-.81.28-.11.63-.37.83-.28.2.08.25.52.36.81-.29.11-.64.37-.84.28Z"/>
      <path class="cls-29" d="m141.66,36.07c-.03.62-.07,1.23-.1,1.85-.56.74-1.12,1.48-1.67,2.21l-.02.02s-.04.06-.04.06c-.41.06-.82.13-1.23.19.42.15.83.3,1.24.45,0,.36,0,.72,0,1.09-1.35,1.02-2.7,2.04-4.05,3.06-.83.34-1.78,1.11-2.48.93-1.3-.33-2.46-1.21-3.67-1.87-.24-2.01-.48-4.02-.71-6.03,2.94-.63,5.88-1.26,8.82-1.9.92-.03,1.84-.06,2.76-.09.39.01.77.02,1.16.03Z"/>
      <path class="cls-22" d="m60.85,229.42c-1.65,2.03-3.29,4.06-4.96,6.1-3.31,1.68-6.63,3.36-9.95,5.04.33-2.35.67-4.69,1-7.04,3.99-1.71,7.99-3.42,11.98-5.13.64.34,1.29.69,1.93,1.03Z"/>
      <path class="cls-18" d="m219.37,180.71c0,1.65-.01,3.31-.01,4.96-4.44-1.7-7.79-6.81-7.84-11.97.02-1.32.04-2.63.06-3.95,1.99,2.86,3.97,5.73,5.97,8.59.57.81,1.21,1.58,1.82,2.37Z"/>
      <path class="cls-29" d="m180.68,63.82l-.12.32c-2.31,2.27-4.62,4.55-6.92,6.82-.33,0-.67.01-1,.01-.33-2.99-.66-5.98-1-8.98.03-1.31.06-2.62.09-3.93,1.22-.03,2.45-.05,3.68-.08.37,1.35.75,2.7,1.13,4.04-.94,5.79,2.52,1.39,3.95,1.72.06.02.13.05.19.08Z"/>
      <path class="cls-22" d="m219.94,115.44c.64-3.52-3.85-7.44.81-10.66.58.72,1.17,1.44,1.75,2.16,1.05,2.96,2.1,5.92,3.14,8.88-1.9-.13-3.8-.25-5.7-.38Z"/>
      <path class="cls-29" d="m117.82,127.81s-.01.02-.01.03c-.66,2-1.31,3.99-1.97,5.99-.38,1.7-.75,3.4-1.13,5.1-.27-.08-.55-.13-.84-.16-.01-6.85-.07-13.7,0-20.54.01-.79.67-1.57,1.02-2.35.98,3.98,1.96,7.95,2.93,11.93Z"/>
      <path class="cls-24" d="m217.72,228.58v4.99c-.13,1.33-.25,2.67-.38,4-1.45.07-2.91.14-3.29.16-.12-3.47-.04-6.81-.4-10.11-.36-3.25,1.66-3.04,3.72-3.03.11,1.33.23,2.66.35,3.99Z"/>
      <path class="cls-19" d="m183.68,67.94c-.68,1.01-1.37,2.02-2.06,3.03-2.66,0-5.32-.01-7.98-.01,2.3-2.27,4.61-4.55,6.92-6.82,1.04,1.27,2.08,2.54,3.12,3.8Z"/>
      <path class="cls-24" d="m140.75,91.88c-1.38,1.02-2.75,2.03-4.13,3.05-.3-.31-.59-.62-.89-.92-.35-.37-.7-.73-1.05-1.1-.38-.02-.75-.05-1.13-.08,1.69-2.61,3.37-5.23,5.06-7.84.71,2.3,1.43,4.59,2.14,6.89Z"/>
      <path class="cls-1" d="m70.89,221.58c-.71-.01-1.42-.02-2.13-.02-3.31-1.71-1.02-5.49-2.87-7.74.66-.4,1.32-.8,1.98-1.2.33-.03.66-.01.98.08.27,1.2.52,2.41.79,3.61.41,1.76.83,3.51,1.25,5.27Z"/>
      <path class="cls-24" d="m210.57,244.53s.02.02.03.03c-.02.01-.04.01-.06.01.01-.01.02-.03.03-.04Z"/>
      <path class="cls-24" d="m216.38,240.55c-.33,2-.67,4-1.01,6-.93-.01-1.87-.02-2.81-.03l-1.96-1.96c2.64-.23,2.76-1.29.94-3,1.62-.34,3.23-.68,4.84-1.01Z"/>
      <path class="cls-8" d="m143.79,93.01c-.03.3-.08.6-.15.91h-.01c-.97-.68-1.92-1.36-2.88-2.04-.71-2.3-1.43-4.59-2.14-6.89,0,0,.01-.01.02-.02.04-.04.12-.1.12-.1,2.9,2.05,5.49,4.28,5.04,8.14Z"/>
      <path class="cls-1" d="m61.36,221.7c.1.91-.82,1.93-1.27,2.9-1.12-1.66-2.23-3.33-3.35-4.99.42-.99.84-1.98,1.26-2.97.62-.06,1.24-.11,1.86-.17.53,1.74,1.3,3.45,1.5,5.23Z"/>
      <path class="cls-21" d="m179.54,48.8c-.97.05-1.94.11-2.91.17.05-.71.09-1.41.13-2.12.04-.27,0-.54-.1-.79-.34-1.35-.67-2.69-1.01-4.04.06-.2.06-.4,0-.61.67-.11,1.33-.22,2-.33.26.73.54,1.45.81,2.18.42.93.84,1.85,1.25,2.78.03.69.06,1.38.09,2.07-.25.17-.33.4-.26.69Z"/>
      <path class="cls-18" d="m22.96,316.47c-1.32-2.36-2.64-4.72-3.96-7.08,4.03.84,3.46,4.27,3.96,7.08Z"/>
      <path class="cls-3" d="m182.53,35.02c-.24,1.68-.48,3.35-.71,5.03-.63-.51-1.25-1.01-1.87-1.52.6-1.13,1.21-2.26,1.81-3.4.25-.06.51-.1.77-.11Z"/>
      <path class="cls-18" d="m12.07,295.41c.97,2,1.95,4.01,2.92,6.01-.97-2-1.95-4.01-2.92-6.01Z"/>
      <path class="cls-24" d="m177.63,41.04h.06s-.03.03-.04.04c-.01-.01-.02-.03-.02-.04Z"/>
      <path class="cls-24" d="m181.82,40.05c-.25,2.07-.49,4.15-.74,6.23-.49-1.75-.97-3.49-1.46-5.24h-1.93c.74-.83,1.49-1.68,2.24-2.51h.01s.01,0,.01,0c.62.51,1.24,1.01,1.87,1.52Z"/>
      <path class="cls-3" d="m176.54,62.02c1.32.57,2.63,1.14,3.95,1.72-1.43-.33-4.89,4.07-3.95-1.72Z"/>
      <path class="cls-3" d="m217.72,233.57v-4.99c2.89,1.67,2.89,3.33,0,4.99Z"/>
      <path class="cls-3" d="m219.69,175.71c.25-1.67.51-3.34.76-5.01,1.49,1.93,2.15,3.75-.76,5.01Z"/>
      <path class="cls-5" d="m64.09,227.69c-1.08.58-2.16,1.15-3.24,1.73-.64-.34-1.29-.69-1.93-1.03.14-.25.29-.51.43-.76,1.58.02,3.16.04,4.74.06Z"/>
      <path class="cls-3" d="m179.54,48.8c-.9,1.07-1.8,2.14-2.7,3.22-.38-.66-.75-1.32-1.12-1.98.3-.36.61-.72.91-1.07.97-.06,1.94-.12,2.91-.17Z"/>
      <path class="cls-3" d="m58,216.64c-.42.99-.84,1.98-1.26,2.97-.8-.48-1.61-.97-2.42-1.45,1.23-.51,2.45-1.01,3.68-1.52Z"/>
      <path class="cls-1" d="m181.08,46.28c-.01.34-.02.68-.03,1.01-.45-.42-.89-.83-1.34-1.25-.41-.93-.83-1.85-1.25-2.78.39-.74.78-1.48,1.16-2.22.49,1.75.97,3.49,1.46,5.24Z"/>
      <path class="cls-3" d="m114.71,138.93l-.75,3.93c-.03-1.37-.06-2.73-.09-4.09.29.03.57.08.84.16Z"/>
      <path class="cls-18" d="m16.03,303.4c.67,1.33,1.34,2.66,2,3.99l-2-3.99Z"/>
      <path class="cls-3" d="m155.69,1.97h-4c1.33-2.63,2.66-2.63,4,0Z"/>
      <path class="cls-18" d="m10.06,291.42c.66,1.32,1.33,2.64,1.99,3.96-.66-1.32-1.33-2.64-1.99-3.96Z"/>
      <path class="cls-2" d="m222.5,106.94c-.58-.72-1.17-1.44-1.75-2.16-.01-.63-.01-1.27-.02-1.9.59,1.36,1.18,2.71,1.77,4.06Z"/>
      <path class="cls-2" d="m190.61,75.79c-1.02-.6-2.04-1.2-3.05-1.81,1.02.6,2.04,1.2,3.05,1.81Z"/>
      <path class="cls-3" d="m203.74,294.43c.39-1.21.79-2.42,1.18-3.64-.4,1.21-.79,2.42-1.18,3.64Z"/>
      <path class="cls-1" d="m63.86,214.5c-.67.33-1.33.65-2,.98.67-.33,1.33-.65,2-.98Z"/>
      <path class="cls-3" d="m229.12,122.85c-.48.33-.96.66-1.44.99,0-.67.01-1.33.01-2,.48.34.95.67,1.43,1.01Z"/>
      <path class="cls-3" d="m218.7,192.67c.26-.67.52-1.34.79-2.01-.26.67-.52,1.34-.79,2.01Z"/>
      <path class="cls-3" d="m194.76,332.33c.27-.67.53-1.34.8-2.01-.27.67-.53,1.34-.8,2.01Z"/>
      <path class="cls-3" d="m218.47,199.63c-.25.67-.51,1.35-.77,2.02-.11-.33-.22-.66-.32-.99.36-.34.73-.68,1.09-1.03Z"/>
      <path class="cls-3" d="m221.71,151.78c.25-.67.51-1.34.76-2.02-.25.67-.51,1.34-.76,2.02Z"/>
      <path class="cls-3" d="m223.7,138.81c.27-.67.53-1.34.8-2-.27.67-.53,1.34-.8,2Z"/>
      <path class="cls-5" d="m181.05,47.29c-.42.27-.84.55-1.25.82-.03-.69-.06-1.38-.09-2.07.45.42.89.83,1.34,1.25Z"/>
      <path class="cls-3" d="m2.94,256.48c-.28.02-.56.07-.84.14.24-.36.49-.72.73-1.08.22.29.25.6.11.94Z"/>
      <path class="cls-3" d="m4.81,252.54c-.25.27-.49.55-.74.82.25-.27.49-.55.74-.82Z"/>
      <path class="cls-3" d="m227.47,117.96c-.26-.36-.53-.72-.79-1.09.26.36.53.72.79,1.09Z"/>
      <path class="cls-22" d="m130.74,93.13c-.38.24-.77.48-1.15.73.38-.24.77-.48,1.15-.73Z"/>
      <path class="cls-26" d="m96.83,191.83c-.36.27-.73.54-1.09.81.36-.27.73-.54,1.09-.81Z"/>
      <path class="cls-10" d="m179.32,243.04c-1.08-.87-2.09-1.82-3.06-2.83-.36-.38-.72-.77-1.07-1.16-.32-.35-.64-.71-.95-1.08-.04-.04-.07-.08-.1-.12-.34-.4-.68-.81-1.01-1.22-.34-.42-.67-.84-1-1.26-.82-1.04-1.63-2.09-2.44-3.14-.5-.65-1-1.29-1.5-1.93-.51-.64-1.01-1.26-1.53-1.88h0c-.42-.28-.84-.55-1.26-.82-.84-.55-1.69-1.1-2.56-1.67-.65-.42-1.3-.84-1.97-1.28-.67-.43-1.35-.88-2.04-1.33-.93-.61-1.89-1.23-2.89-1.88,2.38-.33,4.54-.63,6.7-.93.02-.63.03-1.27.05-1.9-2.24-4.53,1.76-4.23,4.03-4.91,3.09-.92,6.37-1.21,9.44-2.18,1.33-.42,2.34-1.87,3.49-2.86v-.02c-2.01-.01-4-.02-6-.02-1.33.34-2.65.69-3.98,1.04-2.99.33-5.98.66-8.97.99.48,4.6-2.08,7.21-6.08,8.22-1.81.45-3.96-.47-6.79-.9-.09.43-.36,1.87-.69,3.6q-7.76,2.72-7.85-6.68c-5.15,2.02-9.83,3.87-14.52,5.71-.01.33-.01.66-.03.99.01.33.02.67.03,1.01,3.55.67,7.08,1.56,10.66,1.95,4.45.49,8.95.57,13.78.84-.45,5.99-2.04,10.65-9.51,12.65-4.94,1.33-8.94,5.87-13.73,8.21-3.04,1.49-6.76,1.57-10.18,2.28-2.33,2-4.65,3.99-6.98,5.99-.72.42-1.64,1.35-2.13,1.16-2.35-.88-4.58-2.07-6.85-3.15,1.04,4.19-1.46,7.4-6.98,8.97,1.41,2.47,3.07,4.85,4.15,7.46.61,1.47.28,3.34.38,5.03-.47.1-.94.2-1.4.3-.71-.94-1.43-1.88-2.14-2.81-.99,2.26-1.98,4.53-2.97,6.8,2.04.38,4.08.77,6.13,1.15,1.44-2.26,12.06-5.79,14.86-4.94,1.65-.98,3.3-1.96,4.96-2.94-3.04-1.3-6.08-2.6-9.19-3.93-.58.51-1.15.87-1.53,1.37-1.92,2.45-4.19,1.8-5.19-.3-.65-1.39-.1-4.64,1-5.32,3.81-2.37,8.09-3.98,12.19-5.88.15-.07.39,0,.48-.1,6.01-6.6,14.98-4.95,22.27-8,4.65-1.94,9.44-3.59,14.02-5.68,4.96-2.25,7.58-2.09,12.71,1.72-2.1,1.08-4.07,2.08-6.04,3.09.04.53.07,1.05.1,1.57,4.2,1.15,8.44,2.16,12.57,3.5,1.75.57,3.28,1.84,4.91,2.79,1.21-.14,2.43-.29,3.65-.43,1.95-.21,3.91-.42,5.86-.63.59-5.11-.92-8.75-5.3-12.28Zm-25.43-16.33c-.47-.77-1.06-1.3-.97-1.7.1-.48.72-1.1,1.2-1.18.34-.05,1.18.75,1.13,1.07-.08.53-.7.98-1.36,1.81Z"/>
      <path class="cls-12" d="m170.2,253.59c-4.13-1.34-8.37-2.35-12.57-3.5-.03-.52-.06-1.04-.1-1.57,1.97-1.01,3.94-2.01,6.04-3.09-5.13-3.81-7.75-3.97-12.71-1.72-4.58,2.09-9.37,3.74-14.02,5.68-7.29,3.05-16.26,1.4-22.27,8-.09.1-.33.03-.48.1-4.1,1.9-8.38,3.51-12.19,5.88-1.1.68-1.65,3.93-1,5.32,1,2.1,3.27,2.75,5.19.3.38-.5.95-.86,1.53-1.37,3.11,1.33,6.15,2.63,9.19,3.93,1.4-.26,2.8-.49,4.2-.77,6.5-1.3,12.94-3.65,19.67-1.2,3.02,0,6.04-.01,9.05-.01,1.65.25,3.3.5,4.95.75.58-.88,1.15-1.76,1.73-2.64.42.88.85,1.76,1.27,2.64,2.33.32,4.65.65,6.98.98.97-2.52-.9-5.77,2-7.79-1.98-.68-3.95-1.35-5.93-2.03-.03-.33-.06-.65-.09-.98,2.82-1.91,5.55-4.11,9.33-2.71,1.71-.47,3.42-.94,5.14-1.41-1.63-.95-3.16-2.22-4.91-2.79Zm-8.11,12.29c-.08-.27-.13-.42-.17-.56.13-.04.25-.07.38-.11-.06.19-.12.38-.21.67Z"/>
      <path class="cls-10" d="m140.69,269.58c3.02,0,6.03,0,9.05,0-3.02,0-6.03,0-9.05,0Z"/>
      <path class="cls-10" d="m157.68,270.32h-3c.58-.88,1.15-1.76,1.73-2.64.42.88.85,1.76,1.27,2.64Z"/>
      <path class="cls-10" d="m117.9,335.28c-.69-1.68-1.39-3.36-2.08-5.04.69,1.68,1.39,3.36,2.08,5.04Z"/>
      <path class="cls-10" d="m114.61,321.36c-.6-1.36-1.19-2.71-1.79-4.07.6,1.36,1.19,2.71,1.79,4.07Z"/>
      <path class="cls-7" d="m186.46,336.05c-.56.42-1.12.85-1.68,1.28v-3.02c.56.58,1.12,1.16,1.68,1.74Z"/>
      <path class="cls-10" d="m110.63,305.4c-.25-.68-.5-1.35-.75-2.03.25.68.5,1.35.75,2.03Z"/>
      <path class="cls-10" d="m106.84,288.52c.24-.35.48-.7.73-1.06-.24.35-.48.7-.73,1.06Z"/>
      <path class="cls-10" d="m108.57,297.4c-.25-.35-.49-.71-.74-1.06.25.35.49.71.74,1.06Z"/>
      <path class="cls-10" d="m107.83,285.52c.25-.35.49-.7.74-1.05-.25.35-.49.7-.74,1.05Z"/>
      <path class="cls-10" d="m111.54,310.36c-.24-.35-.48-.7-.71-1.05.24.35.48.7.71,1.05Z"/>
      <path class="cls-10" d="m112.57,314.36c-.25-.35-.5-.71-.75-1.06.25.35.5.71.75,1.06Z"/>
      <path class="cls-10" d="m115.54,327.32c-.24-.36-.48-.71-.72-1.07.24.36.48.71.72,1.07Z"/>
      <path class="cls-8" d="m124.74,221.59c0,.34.02.67.03,1.01-.5,1.68-.99,3.36-1.55,5.23.68.52,1.52,1.15,3.24,2.45-5.24,3.14-9.98,5.84-14.58,8.78-4.76,3.04-9.37,6.31-14.05,9.48-2.33.33-4.65.66-6.98.99-3.68-3.84-9.85-2.3-13.46,3.37-6.47-.34-12.72.71-17.72,4.96-1.75,1.49-1.86,4.74-3.17,6.93-2.01,3.37-4.41,6.52-6.64,9.76l.04.02c3.01-9.01,6.02-18.02,9.04-27.02.34,0,.67,0,1.01,0,.66.64,1.31,1.29,1.97,1.93,2.77.61,5.55,1.22,8.56,1.89-.23-1.95-.39-3.38-.56-4.81,1-.34,2-.67,2.99-1.01,3.22-.07,2.28-2.2,1.97-4.01,0,0,0,0,0,0,1.73-.89,3.62-1.55,5.14-2.71,2-1.53,3.43-4.35,5.6-5.02,6.28-1.94,12.77-3.2,18.24-7.17.22-.16.65-.04.98-.04,3.54,5.86,6.31-.17,9.61-.12-.27-1.94-.48-3.39-.68-4.83,1.01.32,2.02.64,3.03.97.87.28,1.82.92,2.6.76,1.83-.39,3.57-1.17,5.35-1.79Z"/>
      <path class="cls-12" d="m97.37,273.99c-.47.1-.94.2-1.4.3-.71-.94-1.43-1.88-2.14-2.81-1.09-.22-2.18-.44-3.18-.64-.27,2.65-.53,5.14-.78,7.65t.02-.01l-.02.02c-.33.26-.67.52-1.01.77-1.29,1.74-2.58,3.49-3.87,5.23-2.7-2.01-5.41-4.03-8.11-6.04-3.15-5.42-7-9.86-13.6-11.28-.89-.19-1.79-3.01-1.63-4.51.12-1.17,1.69-2.62,2.94-3.14,1.73-.72,3.77-.68,5.67-.96-.42,1.68-.84,3.36-1.46,5.86,2.39,1.84,5.24,5.67,8.63,6.23,3.54.58,7.59-1.98,11.42-3.17,4.8-.22,2.37-2.24,1-3.99-.01-1-.01-2-.01-2.99.34-.01.67-.01,1-.01.67.34,1.33.67,2,1,1.41,2.47,3.07,4.85,4.15,7.46.61,1.47.28,3.34.38,5.03Z"/>
      <path class="cls-2" d="m49.89,274.56h-.04v-.02l.04.02Z"/>
      <path class="cls-12" d="m90.85,249.52c2.33-.33,4.65-.66,6.98-.99,2.66,1.33,5.32,2.66,7.98,3.99l2.99,1.99c-.72.42-1.64,1.35-2.13,1.16-2.35-.88-4.58-2.07-6.85-3.16-4.18-.19-8.35-.39-12.53-.58.02-.64.04-1.29.06-1.93,1.17-.16,2.33-.33,3.5-.49Z"/>
      <path class="cls-7" d="m84.99,284.5c-.76,2.31-1.52,4.62-2.29,6.93-6.9-2.09-5.85-7.76-5.82-12.97,2.7,2.01,5.41,4.03,8.11,6.04Z"/>
      <path class="cls-10" d="m90.85,260.51c-.33,0-.67,0-1,0-2.93-.54-5.86-1.07-8.79-1.61.18-.69.35-1.38.53-2.06,3.59-.35,7.28-1.04,9.26,3.67Z"/>
      <path class="cls-10" d="m89.85,263.5c1.38,1.76,3.8,3.78-1,3.99.33-1.33.67-2.66,1-3.99Z"/>
      <path class="cls-9" d="m93.83,271.48c-.99,2.26-1.98,4.53-2.97,6.8-.33.07-.66.14-.99.22h0c.25-2.52.51-5.01.78-7.66,1,.2,2.09.42,3.18.64Z"/>
      <path class="cls-10" d="m91.79,315.35c-.92,2.67-1.85,5.33-2.77,8,.92-2.67,1.85-5.33,2.77-8Z"/>
      <path class="cls-10" d="m85.02,336.32c.77-2.2,1.54-4.39,2.31-6.58.83,2.75.89,5.23-2.31,6.58Z"/>
      <path class="cls-10" d="m98.02,284.45c.26,1.33.52,2.67.79,4-.26-1.33-.52-2.67-.79-4Z"/>
      <path class="cls-10" d="m98.82,292.42c-.27,1-.55,2-.82,3,.27-1,.55-2,.82-3Z"/>
      <path class="cls-10" d="m95.74,302.37l-.73,3.03.73-3.03Z"/>
      <path class="cls-10" d="m89.03,324.36c-.32.99-.65,1.99-.97,2.98.32-.99.65-1.99.97-2.98Z"/>
      <path class="cls-10" d="m94.73,306.35c-.24.68-.48,1.36-.72,2.04.24-.68.48-1.36.72-2.04Z"/>
      <path class="cls-10" d="m93.75,309.35c-.24.68-.49,1.35-.73,2.03.24-.68.49-1.35.73-2.03Z"/>
      <path class="cls-10" d="m97.73,296.38c-.24.68-.48,1.36-.72,2.03.24-.68.48-1.36.72-2.03Z"/>
      <path class="cls-10" d="m96.99,280.46c.23.69.46,1.37.7,2.06-.23-.69-.46-1.37-.7-2.06Z"/>
      <path class="cls-10" d="m88.87,279.27c.34-.26.69-.52,1.03-.78-.34.26-.69.52-1.03.78Z"/>
      <path class="cls-9" d="m209.73,255.82c.29.96-1.8,2.66-1.95,2.86-.51,4.06-.87,6.93-1.23,9.8-.66.67-1.32,1.34-1.99,2-.33,2-.67,3.99-1,5.99-.33,1-.66,1.99-.99,2.99-1.01-.01-2.03-.01-3.05-.02.08-.99.15-1.98.23-2.97.29-.66.57-1.33.86-1.99-1.03-1.68-1.71-4.33-3.16-4.86-4.9-1.78-10.1-2.7-15.1-4.23-1.11-.34-1.86-1.82-2.78-2.77.04-.65.07-1.31.11-1.96.31-.11.63-.2.95-.26h10.33c.19-.47.38-.93.57-1.39-2.31-1.23-4.61-2.46-6.91-3.69.59-5.11-.92-8.75-5.3-12.28-1.08-.87-2.09-1.82-3.06-2.83-.36-.38-.72-.77-1.07-1.16-.32-.35-.64-.71-.95-1.08-.04-.04-.07-.08-.1-.12-.34-.4-.68-.81-1.01-1.22-.34-.42-.67-.84-1-1.26-.82-1.04-1.63-2.09-2.44-3.14-.5-.65-1-1.29-1.5-1.93-.51-.63-1.02-1.26-1.54-1.88h0c.65.07,1.3.15,1.95.23l-.02-.03s.02.01.03.02c1.34.63,2.68,1.27,4.02,1.92,1.97.69,3.94,1.38,5.9,2.07l.05-.02c.68.34,1.35.69,2.03,1.04,1.33.32,2.66.64,3.98.96,3.02.64,6.03,1.28,9.04,1.92,6.49,2.42,8.99,4.66,13.8,12.36,1.05-1.47,2.08-2.89,3.1-4.32.01-.01.02-.03.03-.04.01,0,.02.02.03.03l1.96,1.96c-.73,3.13-4.05,5.35-2.83,9.3Z"/>
      <path class="cls-21" d="m202.55,285.44c-2.06,9-4.11,18-6.19,26.99-.02.09-.28.18-.41.16-.15-.02-.28-.16-.42-.24,1.85-8.55,3.69-17.11,5.61-25.65.11-.5.93-.84,1.42-1.26Z"/>
      <path class="cls-4" d="m180.63,260.4c-.33.06-.64.15-.95.27-1.36,0-2.72,0-4.09,0-1.97-.16-3.93-.32-5.9-.48,0-.53,0-1.06,0-1.59.09-.27.19-.53.28-.8,1.71-.47,3.43-.94,5.14-1.41,1.22-.14,2.43-.29,3.65-.44.62,1.48,1.25,2.97,1.87,4.45Z"/>
      <path class="cls-23" d="m169.97,257.79c-.1.26-.19.53-.28.8-.67.6-1.34,1.2-2.01,1.8-.34,1.04-.68,2.08-1.01,3.12-1.98-.67-3.95-1.35-5.93-2.02-.05-.33-.08-.65-.09-.98,2.82-1.91,5.55-4.11,9.33-2.71Z"/>
      <path class="cls-21" d="m204.57,279.47c-.67,1.99-1.34,3.97-2.01,5.96,0-1.99.02-3.98.02-5.96,0,0,0,0,0,0,.66,0,1.33,0,1.99,0Z"/>
      <path class="cls-21" d="m179.68,260.66c-.04.65-.07,1.31-.11,1.96-1.36-.34-2.72-.67-4.07-1.01.03-.32.06-.64.09-.95h4.09Z"/>
      <path class="cls-27" d="m167.67,260.4c.67-.6,1.34-1.2,2.01-1.8,0,.53,0,1.06,0,1.59-.67.07-1.35.14-2.02.21Z"/>
      <path class="cls-21" d="m194.59,314.38c-.33.99-.66,1.99-.98,2.98.33-.99.66-1.99.98-2.98Z"/>
      <path class="cls-10" d="m108.98,331.32c-1-3.99-2-7.97-3-11.96,1,3.99,2,7.97,3,11.96Z"/>
      <path class="cls-10" d="m96.94,320.43c-.66,1.98-1.33,3.97-1.99,5.95-1.15-.98-1.74-1.84-1.74-2.64,0-.09,0-.19.03-.28.01-.1.04-.19.08-.29.03-.09.07-.18.12-.27t.01-.01c.05-.09.12-.19.19-.28.54-.72,1.63-1.43,3.28-2.17.01,0,.01-.01.02-.01Z"/>
      <path class="cls-10" d="m110.98,340.29c-.33-1.33-.67-2.65-1-3.98.33,1.33.67,2.65,1,3.98Z"/>
      <path class="cls-10" d="m109.97,335.31c-.33-.99-.66-1.99-.99-2.98.33.99.66,1.99.99,2.98Z"/>
      <path class="cls-10" d="m105.98,318.35l-1.01-2.98,1.01,2.98Z"/>
      <path class="cls-10" d="m104.77,313.48c-.26-.36-.52-.73-.78-1.09.26.36.52.73.78,1.09Z"/>
      <path class="cls-10" d="m97.65,319.37l-.75,1.1c.25-.37.5-.73.75-1.1Z"/>
      <path class="cls-10" d="m94.63,329.35l-.74,1.11.74-1.11Z"/>
      <path class="cls-10" d="m204.57,279.47c-.66,0-1.33,0-1.99,0,.33-1,.66-2,.99-3,.33,1,.67,2,1,3Z"/>
      <path class="cls-10" d="m204.57,270.48c.66-.67,1.32-1.33,1.98-2-.66.67-1.32,1.33-1.98,2Z"/>
      <path class="cls-9" d="m58.93,247.54c-2.99,8.95-6,17.91-8.99,26.87-.02.05-.03.1-.05.15h-.04c-2.07-.03-4.21-.42-6.17.03-1.13.26-1.95,1.87-2.92,2.87-4.55-.02-9.19.5-13.64-.18-5.25-.81-10.38-2.52-15.44-4.2-.77-.25-.88-2.44-1.3-3.74,1.21-.11,2.54-.6,3.62-.26,3.65,1.13,7.2,2.55,11.07,3.03-2.04-1.73-4.07-3.47-6.11-5.21.25-.47.5-.94.75-1.41,2.85.95,5.71,1.9,8.56,2.85.29-.27.58-.55.87-.82-2.05-3.01-4.1-6.01-6.15-9.02.22-.31.44-.63.66-.95,3.2,1.06,6.39,2.12,10.04,3.33-1.6-8.98,2.71-11.87,10.78-13.13-2.25-.86-3.58-1.37-5.29-2.03,2.37-1.81,4.57-3.49,6.76-5.16,3.32-1.68,6.64-3.36,9.95-5.03.69,0,1.37.02,2.06.04-.32,1.31-.64,2.62-.97,3.93-.02.68-.04,1.37-.07,2.05-6.83,3.13-9.53,6.26-8.85,10.45.67-.52,1.28-1,1.88-1.47,2.7,2.13,3.45.28,4.01-1.96.66-.34,1.32-.68,1.99-1.03h2.99Z"/>
      <path class="cls-17" d="m153.7,12.1c1.99.35,3.98.69,5.98,1.04,0,1,0,1.99,0,2.99-2.99.33-5.98.66-8.97.99-2.47-.09-3.74.52-5.58,2.99-3.23,4.35-1.99,8.63-2.37,13h0c-.64,0-1.28,0-1.91,0-1.06-2.31-2.11-4.63-3.17-6.94.01-1.03.03-2.06.04-3.09,0,0,0,0,0,0,4.03-1.14,5.2-4.41,5.97-7.99,0,0,0,0,0,0,3.34-.99,6.67-1.99,10.01-2.98Z"/>
      <path class="cls-1" d="m159.68,16.12c0-1,0-1.99,0-2.99.65.08,1.3.16,1.95.23,1.68,1.58,3.35,3.16,5.03,4.74.33,1.33.65,2.66.98,3.99-.98,2.31-1.95,4.63-2.93,6.94-1.73-1.14-3.46-2.28-5.25-3.46,4.47-2.77,4.5-5.64.23-9.46Z"/>
      <path class="cls-21" d="m168.7,18.07c4.95,3.23,9.3,6.97,10.94,12.99-.72-.72-1.34-1.6-2.19-2.1-.82-.48-1.87-.57-2.82-.83-1-.68-2-1.36-3-2.03-.01-.33-.02-.67-.04-1-.64-.68-1.28-1.36-1.92-2.04h0c-.33-1.65-.66-3.31-.99-4.98Z"/>
      <path class="cls-28" d="m153.7,12.1c-3.34.99-6.67,1.99-10.01,2.98,0-1,0-2,0-3.01,3.34,0,6.67.02,10.01.03Z"/>
      <path class="cls-11" d="m174.64,28.13c.95.26,2,.35,2.82.83.85.5,1.47,1.38,2.19,2.1.01,1,.03,2,.04,3-1,0-1.99.02-2.99.03-.68-1.98-1.37-3.97-2.05-5.95Z"/>
      <path class="cls-24" d="m176.69,34.09c1,0,1.99-.02,2.99-.03.7.36,1.39.72,2.09,1.08-.6,1.13-1.21,2.26-1.81,3.4-1.09-.19-2.18-.38-3.27-.56,0-1.29,0-2.59.01-3.88Z"/>
      <path class="cls-17" d="m166.65,18.11c-1.68-1.58-3.35-3.16-5.03-4.74,2.01,1.25,4.02,2.49,6.03,3.73-.33.34-.67.67-1,1.01Z"/>
      <path class="cls-14" d="m166.65,18.11c.33-.34.67-.67,1-1.01.35.32.7.65,1.05.97.33,1.66.66,3.32.99,4.99-.69-.32-1.38-.64-2.07-.96-.33-1.33-.65-2.66-.98-3.99Z"/>
      <path class="cls-15" d="m145.68,141.78h-.01c-.25-.18-.5-.36-.75-.54,0,0-.01.01-.01,0-.71-.5-1.42-1-2.15-1.51-1.09-.77-2.21-1.55-3.39-2.38-2.35,2.31.76,7.85-3.62,10.4-.3,1.93-.45,3.91-.95,5.79-1.06,4.1-3.67,6.07-8.02,5.23-2,5.32-4.01,10.63-6.01,15.95,2.9-.23,4.17,1.19,4.03,4.01,1.46-1.83,2.91-3.66,4.64-5.83,1.27,2.06,6.38.89,4.29,5.79,2.99-.67,5.99-1.34,8.98-2.01-2.1-.3-4.2-.61-6.86-1,2.49-4.8,1.32-11.28,6.91-14.94.31-1.04,1.18-2.36.83-3.06-2.92-5.84-.41-10.85,2.09-15.9Zm-10.79,28.67c-4.59-4.9-2.26-11.71,5.07-13.6-1.86,4.98-3.42,9.18-5.07,13.6Z"/>
      <path class="cls-24" d="m120.77,174.72c2.9-.23,4.17,1.19,4.03,4.02,0,.64.01,1.29.02,1.93l-5.01,3.69c.21.37.43.73.64,1.1,1.1.08,2.2.16,3.29.24.34.67.67,1.33,1.01,2-.68,1.33-1.35,2.66-2.03,3.99-.32.66-.64,1.32-.97,1.99-.33.67-.66,1.34-.99,2-1.33.67-2.66,1.33-3.99,2-3.13.31-3.11-1.79-3-3.95,2.33-6.33,4.65-12.66,6.98-19Z"/>
      <path class="cls-21" d="m122.77,133.83c0-.33,0-.66.02-.99.67,0,1.33,0,2,0-.02,1.99-.03,3.98-.04,5.98-1.86,4.18-1.39,8.16,1.03,11.97,0,.65,0,1.31.01,1.96-.01.35-.03.69-.04,1.04-1.9-.27-5.27-.19-5.43-.87-.69-2.92-.44-6.06-.53-9.12,5.02-2.11,2.26-6.56,2.99-9.96Z"/>
      <path class="cls-24" d="m125.74,153.78c.01-.35.03-.69.04-1.04.94.67,1.88,1.35,3.39,2.43.21-2.66.41-5.02.6-7.39.99-.34,1.98-.67,2.97-1.01.98,0,1.96,0,2.95-.01.02.33.04.66.07.98-.31,1.93-.46,3.91-.95,5.79-1.07,4.1-3.67,6.06-8.02,5.23-.35-1.66-.7-3.33-1.04-4.99Z"/>
      <path class="cls-11" d="m113.79,193.71c-.11,2.16-.14,4.25,3,3.95.32,2.06.64,4.12.98,6.32-2.93.62-5.48,1.17-8.02,1.71-.32-.68-.65-1.35-.97-2.03.33-2.32.67-4.65,1-6.97,1.01-1,2.02-1.99,3.02-2.99.33,0,.66,0,.99,0Z"/>
      <path class="cls-23" d="m122.77,133.83c-.74,3.4,2.02,7.85-2.99,9.96,0-3.32,0-6.65,0-9.97.32,0,.65,0,.97.01.67,0,1.34,0,2.02,0Z"/>
      <path class="cls-21" d="m120.75,133.83c-.32,0-.65,0-.97-.01-1.31,0-2.63,0-3.94.01.66-2.01,1.32-4.01,1.98-6.02,0,0-.04-.02-.04-.02.6,1.33,1.21,2.67,1.81,4,.39.68.77,1.36,1.16,2.04Z"/>
      <path class="cls-28" d="m135.76,147.75c-.02-.33-.04-.66-.07-.98-.01-5.39,1.96-10.63.25-16.25-.82-2.72-1.32-4.08-4.17-3.8.03-.27.04-.55.05-.82.35-.32.69-.64,1.04-.97.62-.7,1.24-1.4,1.86-2.11,0-.31,0-.63-.02-.94,0-1.68.01-3.36.02-5.04.32-.34.65-.69.97-1.03,2.31,2.69,4.62,5.38,6.93,8.07.7-.33,1.4-.67,2.1-1,.99-.33,1.97-.66,2.96-.99,0,0,0-.01,0-.01.04.66.08,1.33.12,2,1.93,6.28.12,12.12-2.12,17.91-2.03-1.42-4.05-2.85-6.31-4.43-2.34,2.31.77,7.85-3.61,10.4Z"/>
      <path class="cls-13" d="m158.68,88.93c0-.65.01-1.3.02-1.95.99-1.35,1.99-2.69,2.98-4.04,3.88,3.63,8.06,4.32,12.85,1.7,1.84-1,4.02-1.37,6.04-2.02.68-.07,1.36-.13,2.05-.2-.54,3.71-1.5,6.85-5.81,8.18-1.99.61-3.48,2.82-5.2,4.3-1.34,1.32-2.68,2.64-4.02,3.96-1.98,1.34-3.95,2.68-5.93,4.03-1.04-.67-2.09-1.35-3.13-2.02.93-2.13,1.85-4.26,3.13-7.2-1.95.62-2.97.94-3.98,1.26-.33-.66-.66-1.33-.98-1.99,0,0,0,.01,0,.01,1.22-.3,2.44-.59,3.66-.89-.56-1.04-1.12-2.08-1.67-3.12Z"/>
      <path class="cls-22" d="m161.66,102.88c1.98-1.34,3.95-2.68,5.93-4.03-3.95,7.67-7.9,15.34-11.85,23.01-2.69,0-5.38,0-8.07,0,0,0,0,.01,0,0,.4-1.7,1.65-3.95-1.98-3.02-.33,0-.66,0-.99,0-1.34-1.33-2.67-2.66-4.01-3.99-.67-.99-1.34-1.97-2.01-2.96,2.98.43,5.96.87,9.42,1.37-.03.18-.22,1.37-.42,2.57-.08.14-.15.29-.23.43.08-.14.16-.28.24-.42,1.01-.77,2.14-1.43,2.99-2.35,1.27-1.38,2.35-2.94,3.74-4.73.97,1.22,1.59,2,2.3,2.9,1.76-3.14,3.34-5.98,4.92-8.81Z"/>
      <path class="cls-23" d="m134.71,122.82c-.62.7-1.24,1.4-1.86,2.11-.71-.36-1.42-.72-2.13-1.09-1.65,0-3.3.01-4.95.02-.35-.34-.7-.68-1.06-1.02,0-.99.01-1.99.02-2.98.32-.38.64-.76.96-1.13.35-.97.71-1.94,1.06-2.92,2.07,4.8,5.37.18,7.96,1.03,0,1.68-.01,3.36-.02,5.04-.13.09-.37.23-.36.26.09.24.24.46.38.68Z"/>
      <path class="cls-10" d="m138.77,98.86c-3.31,5.53-6.63,11.06-10.58,17.65.46-8.57,3.51-14.59,8.64-19.68.65.68,1.29,1.36,1.94,2.03Z"/>
      <path class="cls-10" d="m126.76,115.81c-.35.97-.71,1.94-1.06,2.92-1.8-7.06-1.5-14,1.05-20.84.22,4.52.5,9.03.61,13.55.04,1.45-.39,2.91-.61,4.37Z"/>
      <path class="cls-15" d="m138.77,98.86c-.65-.68-1.3-1.36-1.94-2.03-.07-.63-.13-1.26-.2-1.89,1.37-1.01,2.75-2.03,4.13-3.04.96.68,1.92,1.36,2.88,2.04,1.36,1.99,2.72,3.99,4.07,5.98-2.35-.32-4.69-.65-7.04-.97-.64-.02-1.27-.05-1.91-.07Z"/>
      <path class="cls-15" d="m138.7,111.91c.67.99,1.34,1.97,2.01,2.96-.17,2.85,1.15,4.19,4,3.99.33,0,.66,0,.99,0,0,.66,0,1.31.01,1.97-1.03,1.02-2.06,2.03-3.09,3.05-2.31-2.69-4.62-5.38-6.93-8.07.35-1.32.69-2.63,1.04-3.94.65.01,1.31.03,1.96.04,0,0,0,.01,0,.01Z"/>
      <path class="cls-22" d="m156.7,92.92c.33.66.66,1.33.98,1.99-2.38,1.97-4.25,3.94-.03,5.94-1.1,1.16-2.2,2.32-3.3,3.48-.4-.29-.8-.59-1.2-.88.17-1.19.35-2.39.52-3.58-.33-2.65-.66-5.3-.99-7.94.96.56,1.92,1.12,3.07,1.78.02-.02.49-.4.96-.79Z"/>
      <path class="cls-11" d="m140.68,98.93c2.35.32,4.69.65,7.04.97.31.64.61,1.29.92,1.93-6.12,3.38-6.8,3.14-7.95-2.9Z"/>
      <path class="cls-26" d="m157.65,100.85c-4.22-2-2.34-3.97.03-5.94,1.02-.32,2.03-.64,3.98-1.26-1.28,2.95-2.21,5.08-3.13,7.2,0,0-.44-.02-.44-.02h-.44Z"/>
      <path class="cls-22" d="m138.69,111.9c-.65-.01-1.31-.03-1.96-.04.42-.51.83-1.03,1.25-1.54.24.53.48,1.05.71,1.58Z"/>
      <path class="cls-15" d="m134.68,92.92c.35.36.7.73,1.05,1.09-.35-.36-.7-.73-1.05-1.09Z"/>
      <path class="cls-29" d="m168.62,228.65c-.65-.08-1.31-.15-1.96-.23-3.36-2.19-6.73-4.38-10.72-6.97,2.38-.33,4.55-.63,6.71-.93,2,.05,4,.09,6,.14,1.68,2.05,3.36,3.45,5.03-.01,1.32.03,2.64.07,3.96.1.88,2.82,2.69,3.08,5.04,1.81,3.17,1.41,6.33,2.82,9.59,4.27.91-3.29-.11-5.45-3.57-6.26-.02-.97-.04-1.93-.06-2.9,2.32-.03,4.64-.06,6.96-.09,1.33,1.34,2.66,2.68,3.99,4.02-4.41,1.35-5.95,4.97-7.06,8.92-1.63.37-3.25.74-4.88,1.1-1.99-.7-3.98-1.39-5.97-2.09-1.69-1.68-7.01-1.07-9.01,1.04-1.35-.65-2.7-1.29-4.06-1.94.91-.27,1.82-.53,2.73-.8-.27-.4-.55-.8-.82-1.2-.63.68-1.26,1.35-1.88,2.03Z"/>
      <path class="cls-8" d="m187.63,231.61c1.63-.37,3.25-.73,4.88-1.1,3.57,1.41,3.96,3.41,1.13,6.02-3.01-.64-6.02-1.28-9.03-1.92,1.01-1,2.01-2,3.02-2.99Z"/>
      <path class="cls-9" d="m211.55,241.56c1.83,1.72,1.7,2.8-1,3.01.33-1,.67-2.01,1-3.01Z"/>
      <path class="cls-12" d="m162.68,218.62c-2.24-4.54,1.76-4.24,4.03-4.91,3.09-.92,6.38-1.21,9.45-2.18,1.33-.42,2.33-1.87,3.48-2.86,1.99,0,3.98-.02,5.97-.03,1-.33,2-.66,2.99-.99.33-.32.66-.64.99-.97,3.65.33,7.31.66,10.96.99.34.32.69.65,1.03.97-.33.34-.66.67-.99,1.01-4.84,1.86-9.68,3.7-14.49,5.62-.3.12-.34.88-.5,1.34-.66,0-1.32,0-1.99,0-1.39-.37-2.78-.73-4.74-1.25.34,1.99.54,3.17.75,4.36l-1.95-.07c-5-.34-10-.69-14.99-1.03Z"/>
      <path class="cls-21" d="m200.56,207.67c-3.65-.33-7.31-.66-10.96-.99-2.79-1.34-5.58-2.67-9.64-4.62,2.84-.61,4.71-1.01,6.58-1.41,2.32.91,4.61,1.91,6.97,2.7.96.32,2.08.2,3.12.27,2.59.64,5.19,1.28,7.78,1.92-.62.7-1.24,1.4-1.86,2.1-.66.01-1.33.02-1.99.03Z"/>
      <path class="cls-6" d="m204.41,205.54c-2.59-.64-5.19-1.28-7.78-1.92-2.35-1.98-4.69-3.97-7.04-5.95,1-.34,2-.67,3-1.01,4.01,2.33,8.01,4.67,12.02,7-.07.63-.13,1.25-.2,1.88Z"/>
      <path class="cls-8" d="m185.61,216.6c.16-.46.21-1.22.5-1.34,4.81-1.92,9.66-3.76,14.49-5.62-.02.99-.04,1.97-.06,2.96-1.33,1.32-2.66,2.64-3.99,3.96-.32.34-.65.67-.97,1.01-2.32.03-4.64.06-6.96.09-1.01-.35-2.01-.7-3.02-1.06Z"/>
      <path class="cls-21" d="m196.56,216.56c1.33-1.32,2.66-2.64,3.99-3.96-1.33,1.32-2.66,2.64-3.99,3.96Z"/>
      <path class="cls-8" d="m200.56,207.67c.67-.01,1.33-.02,1.99-.03-.32.33-.64.67-.96,1-.34-.32-.69-.65-1.03-.97Z"/>
      <path class="cls-14" d="m176.69,34.09c0,1.29,0,2.59-.01,3.88-.34,1.15-.68,2.3-1.02,3.45.06.2.06.41,0,.61-.64.75-1.29,1.5-1.93,2.25.98.59,1.96,1.19,2.94,1.78.1.26.14.52.1.8-1.92.33-4.35.34-2.06,3.3-4.74,2.26-9.59,4.31-14.16,6.86-1.95,1.09-3.31,3.23-4.93,4.9-.64-.29-1.28-.58-1.92-.87-.7-.71-1.39-1.42-2.09-2.13-.66-.93-1.32-1.87-1.98-2.8.54-.48,1.09-.95,1.62-1.42-1.03-.69-1.79-1.2-2.55-1.71.04-.36.08-.72.12-1.08.96-.29,1.91-.59,2.87-.88.1.44.2.88.3,1.32l.7-.43c.67.03,1.33.06,2,.09,0,0-.02.08-.02.08,1.92.46,4.68,1.95,5.62,1.2,2.72-2.21,7.29-4.15,4.41-9.23.99-1.66,1.98-3.33,2.97-4.99.33-.33.66-.67.99-1,0-.33,0-.66,0-.99,1-3.66,2-7.31,2.99-10.97,1,.68,2,1.36,3,2.03.68,1.99,1.37,3.97,2.05,5.95Z"/>
      <path class="cls-27" d="m151.69,51.03c-.96.29-1.91.59-2.87.88-.33-.68-.67-1.35-1-2.03-.01-1.58-.02-3.16-.03-4.74-.47-1.3-.94-2.59-1.41-3.89,1.34.19,2.68.39,4.61.67-.81-2.02-1.55-3.89-2.3-5.76,3.33-.5,7.57,1.36,9.26-3.57.06-.18,1.7.17,2.61.28-.11,1.89-.21,3.78-.33,5.93,1.25.1,2.36.2,3.47.29-.71,1-1.42,2-2.11,3.01-2.3,3.3-4.59,6.61-6.88,9.91-.67-.03-1.33-.06-2-.09-.33-.3-.67-.59-1-.89Z"/>
      <path class="cls-25" d="m151.61,58.92c.7.71,1.39,1.42,2.09,2.13-.34.62-.69,1.24-1.03,1.86-.63.1-1.25.19-1.88.29-2.87-.16-5.74-.33-9.24-.53,2.76-4.63,6.66-3.46,10.05-3.74Z"/>
      <path class="cls-7" d="m146.38,41.25c.47,1.3.94,2.59,1.41,3.89-2.76-.61-5.56-1.47-7.92,1.04-1.36-.39-2.72-.78-4.08-1.18,1.35-1.02,2.7-2.04,4.05-3.06,0,0,.17-.03.17-.03.07.24.15.48.22.71.17-.19.33-.39.5-.58,1.88-.26,3.77-.53,5.65-.79Z"/>
      <path class="cls-14" d="m139.87,46.18c2.36-2.5,5.15-1.65,7.92-1.04.01,1.58.02,3.16.03,4.74-3.06-.34-7.25,1.73-7.95-3.7Z"/>
      <path class="cls-1" d="m148.7,52.98c.76.51,1.52,1.02,2.55,1.71-.53.47-1.08.94-1.62,1.42-2.46-.05-4.96.15-7.36-.23-1.33-.21-2.5-1.38-3.14-2.9h9.57Z"/>
      <path class="cls-17" d="m193.62,87.92c1.65.33,3.3.66,4.95,1,.18,2.71.36,5.42.53,7.98,2.68,4,5.6,8.35,9.29,13.86,1.44-2.54,2.16-4.18,3.23-5.56.74-.96,1.96-1.54,2.97-2.29,1.4,1.85,4.14,3.22-.61,5.08-2.92,1.14-1.21,4.58.53,6.81-.01.34-.03.68-.04,1.03-3.51,2.66-1.94,5.86-.97,9-.29.68-.58,1.36-.87,2.04-1.43-.93-2.86-1.87-5.46-3.57-.24,2.65-.42,4.59-.6,6.54v11.97c-.91-.25-2.35-.22-2.66-.79-3.17-5.86-9.02-5.3-14.27-6.19-.67-.34-1.34-.67-2.01-1.01-.01-.32-.03-.64-.04-.96.54-.79,1.09-1.59,2.06-3.01h-6.02c-.01-.32-.03-.64-.04-.96,3.24-1.69,6.52-3.32,9.71-5.09.84-.47,1.46-1.35,2.18-2.04-.62-.61-1.16-1.39-1.89-1.79-.74-.41-1.68-.46-1.49-.41,2.44-6.16,4.77-12.04,7.11-17.92-.18-.15-.36-.3-.54-.45-4.04,3.9-8.08,7.81-12.12,11.71-.35-1.32-.7-2.64-1.04-3.96,2.12-2.31,6.33-3.56,4.06-8.08,1.79-2.45,3.57-4.9,5.69-7.82h-3.54c.3-1.03.59-2.06.89-3.1,0-.34,0-.68,0-1.03,0-.32,0-.65,0-.97.34,0,.68,0,1.02,0Z"/>
      <path class="cls-28" d="m70.89,221.58c-.42-1.76-.84-3.51-1.24-5.27-.28-1.2-.53-2.41-.79-3.61,4.63-.5,9.59-.13,13.78-1.76,3.74-1.45,5.79-.43,8.19,1.71,1.46,4.21,5.1,2.57,7.98,2.98-1.11,1.07-2.05,2.65-3.37,3.11-5.22,1.81-10.49,3.53-15.87,4.73-3.09.69-4.74,1.9-4.69,5.1-1.65,0-3.31-.02-4.96-.02,0-1.3,0-2.6,0-3.89.02-.35.03-.7.05-1.06.31-.67.61-1.35.92-2.02Z"/>
      <path class="cls-21" d="m109.75,205.69c2.54-.54,5.09-1.08,8.02-1.71-.34-2.2-.66-4.26-.98-6.32,1.33-.67,2.66-1.33,3.99-2-.78,3.61-1.56,7.23-2.45,11.32,1.68-.65,2.57-.99,3.45-1.34-.31,3.16,1.84,3.1,3.98,3.02-.02,4.14.44,8.51-4.97,9.95,0-1.99,0-3.98,0-5.97.07-2.03-.22-3.2-2.81-2.15-2.57,1.04-5.37,1.52-8.07,2.24l-.14-.14c0-2.3-.02-4.6-.02-6.91Z"/>
      <path class="cls-23" d="m98.81,215.63c-2.88-.41-6.52,1.22-7.98-2.98,4.57-.07,9.29-.81,12.98,2.95.04.35.08.7.12,1.05,0,0-.25-.1-.25-.1-1.62-.31-3.25-.61-4.88-.92Z"/>
      <path class="cls-7" d="m109.77,196.69c-.33,2.32-.67,4.64-1,6.97-1.3,0-2.6.02-3.9.03-.02-1.02-.04-2.04-.06-3.06.34-1.32.67-2.64,1.01-3.96,1.32,0,2.63.02,3.95.03Z"/>
      <path class="cls-5" d="m105.78,216.56c.65-.44,1.31-.88,1.96-1.32.65.28,1.3.56,1.96.83.08.51.16,1.02.24,1.53-.38.33-.75.67-1.13,1-1.32.97-2.65,1.93-3.98,2.9,0-.63,0-1.26,0-1.89.04-.12.13-.26.1-.36-.07-.22-.2-.41-.3-.62.38-.69.76-1.38,1.15-2.07Z"/>
      <path class="cls-7" d="m100.76,210.58c1.03-1.29,2.06-2.59,3.09-3.88.05,2.15.1,4.31-3.09,3.88Z"/>
      <path class="cls-21" d="m109.69,216.07c-.65-.28-1.3-.56-1.95-.83.68-.88,1.36-1.76,2.03-2.64,0,0,.14.14.14.14-.07,1.11-.15,2.22-.22,3.34Z"/>
      <path class="cls-4" d="m105.78,216.56c-.38.69-.76,1.38-1.15,2.07-.27.02-.55,0-.82-.04-.05-.32-.11-.63-.18-.94.02-.37.03-.73.05-1.1,0,0,.25.1.25.1.32-.03.64-.05.96-.06.3.02.59.01.89-.03Z"/>
      <path class="cls-16" d="m104.89,216.59c-.32,0-.64.03-.96.06-.04-.35-.08-.7-.12-1.05.36.33.72.66,1.08.99Z"/>
      <path class="cls-7" d="m219.57,131.82c-.34,3.99-.68,7.98-1.03,11.97,0,.67,0,1.33,0,2-.01.33-.02.67-.03,1-.34,1.65-.67,3.31-1.01,4.96-.98-.9-2.57-1.67-2.82-2.74-.46-1.98-.14-4.14-.15-6.23-.07-1.68-.13-3.36-.2-5.05.04-1.63.08-3.27.12-4.9.31-2.71.62-5.41.93-8.12,0-.97,0-1.93,0-2.9.73.33,1.46.66,2.18.99.66,3,1.33,6,1.99,9.01Z"/>
      <path class="cls-24" d="m217.58,122.81c-.73-.33-1.46-.66-2.18-.99-.31-2-.62-4-.94-6,.02-.34.03-.68.05-1.02,4.17,1.47,2.72,5.09,3.07,8.02Z"/>
      <path class="cls-14" d="m200.59,180.7c-.02.33,0,.65.02.98-.01.71-.03,1.41-.04,2.12-.64.61-1.29,1.22-1.93,1.83-.35.35-.71.71-1.06,1.06-1.32-1.01-2.64-2.02-3.96-3.03,0,0,.05-.14.05-.14,0-.56,0-1.12-.01-1.68-2.36-2.36-4.72-4.71-7.07-7.07-3.64-2.68-7.28-5.37-10.92-8.05,1.32-1.32,2.65-2.63,3.97-3.95,1.93.85,3.86,1.7,5.8,2.56-.07.17-.14.35-.2.52,4.45,1.95,8.91,3.89,13.36,5.84.33,1.03.66,2.05,1,3.08-.65,0-1.31-.01-1.96-.02-.53.24-1.06.48-1.58.72.52.41,1.04.82,1.56,1.23.33.34.66.67.99,1.01.67.99,1.34,1.99,2.01,2.98Z"/>
      <path class="cls-29" d="m181.27,186.7c-1.42-1.06-2.45-2.65-3.65-3.99-.67-.04-1.33-.08-1.99-.12-.33.7-.66,1.4-.99,2.1-.32-.63-.65-1.27-.97-1.9-3-.52-6.01-1.43-9.01-1.43-1.66,0-3.32,1.51-4.98,2.34,2.99,2.32,5.97,4.64,8.96,6.97,1.68.5,3.36.99,5.07,1.49,1.72-3.62,4.51-3.96,7.48-1.62,2.66,2.1,4.93,4.71,7.38,7.09.34.01.68.02,1.02.03,1-.34,2-.67,3-1.01.01-.67.03-1.34.05-2.01-3.8-2.63-7.67-5.17-11.37-7.94Zm3.81,4.35c.02-.25.04-.5.06-.75,0,0,0,.01.01.01.08.13.21.26.2.39-.02.12-.18.23-.27.35Z"/>
      <path class="cls-7" d="m192.6,187.7v-1.07c.34-.99.68-1.98,1.01-2.97l.05-.14c-1.36-.61-2.72-1.22-4.08-1.83-.35-.34-.71-.67-1.06-1.01l-1.92-.93c-.61,1.01-1.22,2.01-2.14,3.52-.34-.19-1.62-.9-2.89-1.6-1.31.33-2.61.66-3.92,1l-.03.04c1.2,1.34,2.23,2.93,3.65,3.99,3.7,2.77,7.57,5.31,11.37,7.94,2.07.86,4.13,1.78,6.23,2.59,2.34.89,3.82.37,3.64-2.5-3.3-2.35-6.61-4.69-9.91-7.03Zm-4.08-2.41c-.29-.54-.59-1.08-.89-1.63.2-.11.4-.22.6-.33.29.55.58,1.1.87,1.64-.19.11-.38.21-.58.32Z"/>
      <path class="cls-26" d="m211.58,169.75c-.02,1.32-.04,2.63-.06,3.95-1.65-1.32-3.3-2.64-4.95-3.96-1.34-3.33-2.67-6.66-4-9.99,0-1-.01-2-.02-3,2.17,2.39,4.33,4.78,6.01,6.62v-8.61h0c1.32.32,2.63.64,3.95.97,0,3.01.02,6.01.02,9.02l-.95,5Z"/>
      <path class="cls-14" d="m202.57,159.75c1.33,3.33,2.67,6.66,4,9.99,0,1,0,1.99.01,2.99-3.64,2.41-2.36,3.9.94,5.01,0,.65,0,1.3,0,1.94-.99.02-1.99.03-2.98.04-.66-1.34-1.31-2.68-1.97-4.02,0-1.32,0-2.64,0-3.96-.34-.34-.69-.68-1.03-1.02-.33-.66-.66-1.32-.99-1.98.38-1.46.79-2.91,1.12-4.39.34-1.53.61-3.08.9-4.62Z"/>
      <path class="cls-26" d="m200.55,168.76c.33.66.66,1.32.99,1.98.34.34.69.68,1.03,1.02,0,1.32,0,2.64,0,3.96-.66,1.66-1.33,3.33-1.99,4.99-.67-.99-1.34-1.99-2.01-2.98.33-.98.66-1.96.99-2.94-.33-1.03-.66-2.05-1-3.08-2-2.31-4-4.63-5.99-6.94.64-1.31,1.29-2.62,1.93-3.93.37-.37.74-.74,1.1-1.1,1.64,3.01,3.29,6.02,4.93,9.04Z"/>
      <path class="cls-26" d="m202.51,194.74c-3.31-2.35-6.62-4.7-9.93-7.06,1.67-.33,3.33-.66,5-.99.35-.35.71-.71,1.06-1.06.97.68,1.95,1.36,2.93,2.05h.01c1,2.01,2,4,3,5.99-.69.36-1.38.71-2.07,1.07Z"/>
      <path class="cls-20" d="m204.58,193.67c-1-1.99-2-3.99-3-5.98.99,0,1.99.02,2.98.03.03,1.98,4.32,3.96.02,5.95Z"/>
      <path class="cls-26" d="m204.57,187.72c-.99,0-1.99-.02-2.98-.03,0,0-.01-.01-.01-.01-.33-1.29-.66-2.59-1-3.88.01-.71.02-1.41.04-2.12,1.32,2.01,2.64,4.03,3.96,6.04Z"/>
      <path class="cls-26" d="m204.55,179.72c.99-.01,1.99-.03,2.98-.04,0,1.81,0,3.62,0,5.43-.5.07-1.01.14-1.51.21-.49-1.87-.98-3.73-1.47-5.6Z"/>
      <path class="cls-26" d="m207.53,177.74c-3.29-1.11-4.57-2.6-.94-5.01.31,1.67.62,3.34.94,5.01Z"/>
      <path class="cls-23" d="m165.9,76.05c-4.14-.36-8.29-.62-12.41-1.17-1-.13-1.86-1.24-2.79-1.9,2.32-.67,4.65-1.34,6.97-2.02,3.65,2.26,5.07.14,5.95-3.02.65-.33,1.29-.65,1.94-.98,1.38,2.34,2.75,4.67,4.12,7.01-1.26.7-2.53,1.39-3.79,2.09Z"/>
      <path class="cls-19" d="m169.7,73.97c-1.37-2.34-2.75-4.67-4.12-7.01,1.35-1.34,2.69-2.68,4.04-4.02.68-.32,1.36-.63,2.04-.95.33,2.99.66,5.99,1,8.98-.98,1-1.97,1.99-2.95,2.99Z"/>
      <path class="cls-24" d="m171.65,62c-.68.32-1.36.63-2.04.95-.07-1.12-.14-2.24-.24-3.85-3.7,1.43-6.94,2.98-10.34,3.88-1.98.52-4.23,0-6.36-.07.34-.62.69-1.24,1.03-1.86.64.29,1.28.58,1.92.87,4.48-1.61,8.93-3.3,13.46-4.76.72-.23,1.77.58,2.66.9-.03,1.31-.06,2.62-.08,3.93Z"/>
      <path class="cls-21" d="m163.63,67.94c-.89,3.17-2.31,5.29-5.95,3.02,1.98-1.01,3.97-2.02,5.95-3.02Z"/>
      <path class="cls-20" d="m212.54,164.75c0-3.01-.02-6.01-.02-9.02.03-4.31.06-8.61.08-12.92.64-.01,1.29-.02,1.94-.03,0,2.09-.31,4.25.15,6.23.25,1.08,1.84,1.84,2.82,2.74-.65,3.14-1.09,6.34-2.06,9.38-.44,1.38-1.91,2.42-2.91,3.62Z"/>
      <path class="cls-26" d="m171.61,94.89c1.72-1.48,3.21-3.69,5.2-4.3,4.32-1.33,5.27-4.47,5.81-8.17.67-1.82,1.34-3.64,2-5.46.54,1.12,1.07,2.24,1.75,3.65,1.67-.53,3.44-1.1,5.22-1.66.66,1.35,1.33,2.69,1.99,4.04-4.4-.47-5.66,2.83-7.1,5.92-1.16,1.03-3.2,1.96-3.32,3.1-.31,2.91.23,5.9.43,8.86-1.09,1.4-2.17,2.81-3.27,4.22-.95-1.33-1.82-2.55-2.99-4.19-.69,1.73-1.15,2.9-1.62,4.06-.36,1.64-.71,3.27-1.07,4.91-.33-1.33-.67-2.66-1-3.99.25-.35.5-.71.75-1.06-.13-.08-.25-.17-.38-.25-.13.44-.25.87-.38,1.31-.34-1.67-.67-3.34-1.01-5.01-1.11-1.86,5.88-5.11-1.02-5.98Z"/>
      <path class="cls-25" d="m169.7,73.97c.98-1,1.97-1.99,2.95-2.99.33,0,.66,0,1-.01,2.66,0,5.32,0,7.98,0,0,1,0,1.99,0,2.99-.7.39-1.39.77-1.04.58v8.08c-2.02.65-4.21,1.02-6.04,2.02-4.79,2.62-8.97,1.92-12.85-1.7,1.41-2.3,2.81-4.59,4.22-6.89,1.27-.69,2.53-1.39,3.8-2.08Z"/>
      <path class="cls-25" d="m186.49,88.91c1.44-3.09,2.7-6.39,7.1-5.92.01,1.64.02,3.29.03,4.93-.34,0-.68,0-1.02,0-2.04.33-4.07.66-6.11.98Z"/>
      <path class="cls-19" d="m180.58,82.62v-8.08c-.35.2.34-.19,1.04-.58,1,1,2.01,2,3.01,3-.67,1.82-1.34,3.64-2,5.46-.68.06-1.36.13-2.05.19Z"/>
      <polygon class="cls-26" points="191.6 78.95 191.83 78.53 192.02 78.72 191.6 78.95"/>
      <path class="cls-15" d="m105.83,196.67c-.34,1.32-.67,2.64-1.01,3.96-2.27-1.1-4.54-2.19-6.81-3.29-.03-.53-.05-1.05-.08-1.58,2.08-.39,4.16-.93,6.26-1.06.5-.03,1.09,1.28,1.63,1.97Z"/>
      <path class="cls-8" d="m124.73,119.86c0,.99-.01,1.99-.02,2.98-.98.67-1.97,1.33-2.95,2-.33-1.32-.66-2.64-.99-3.97.18-1.06.36-2.13.58-3.42,1.33.94,2.36,1.67,3.38,2.4Z"/>
      <path class="cls-22" d="m158.68,88.93c.56,1.04,1.12,2.08,1.67,3.12-1.22.3-2.44.59-3.66.89.66-1.34,1.32-2.67,1.99-4.01Z"/>
      <path class="cls-22" d="m155.06,87.66c.1.01.25-.02.29.04.07.09.06.23.08.35-.17-.02-.34-.03-.51-.05.04-.11.09-.23.13-.34Z"/>
      <path class="cls-1" d="m174.7,50.16c-2.29-2.96.13-2.97,2.06-3.3-.04.7-.08,1.41-.12,2.11-.3.36-.61.71-.91,1.07-.34.04-.68.08-1.02.12Z"/>
      <path class="cls-18" d="m137.68,26.16c1.06,2.31,2.11,4.63,3.17,6.94-.12.98-.23,1.96-.35,2.93-.92.03-1.84.06-2.76.1-.79-4.04-2.3-7.65-5.93-10.01.97-.34,1.94-.68,2.91-1.03.99.36,1.97.71,2.96,1.07Z"/>
      <path class="cls-28" d="m143.69,15.08c-.76,3.58-1.94,6.85-5.97,7.99,1.99-2.66,3.98-5.33,5.97-7.99Z"/>
      <path class="cls-28" d="m137.68,26.16c-.99-.36-1.97-.71-2.96-1.07,1-.67,2-1.35,3-2.02-.01,1.03-.03,2.06-.04,3.09Z"/>
      <path class="cls-8" d="m124.79,132.83c-.67,0-1.33,0-2,0-.34-2-.69-4-1.03-6,1.31.35,2.62.7,3.92,1.05-.3,1.65-.59,3.3-.89,4.95Z"/>
      <path class="cls-22" d="m125.68,127.88c-1.31-.35-2.62-.7-3.92-1.05,0-.66,0-1.33.01-1.99.98-.67,1.97-1.33,2.95-2,.35.34.7.68,1.06,1.02-.03,1.34-.07,2.68-.1,4.02Z"/>
      <path class="cls-29" d="m119.59,131.79c-.6-1.33-1.21-2.67-1.81-4,.6,1.33,1.21,2.67,1.81,4Z"/>
      <path class="cls-20" d="m218.55,145.79c0-.67,0-1.33,0-2,0,.67,0,1.33,0,2Z"/>
      <path class="cls-24" d="m69.92,228.55c1.65,0,3.31.02,4.96.02,5-.65,10-1.3,14.99-1.95-.59.67-1.06,1.57-1.8,1.98-3.71,2.04-7.49,3.96-11.24,5.92-1.29-.96-2.58-1.92-3.87-2.88-1.46-.36-3.07-.47-4.35-1.17-1.09-.6-1.81-1.89-2.7-2.87.91-1.08,1.83-2.15,2.75-3.23,0,0,.28.26.28.26-.56,1.53-2.38,3.37.99,3.91Z"/>
      <path class="cls-8" d="m65.91,227.61c.89.98,1.6,2.27,2.7,2.87,1.28.7,2.88.81,4.35,1.17-5,1.31-10,2.62-15.01,3.92-.68-.01-1.37-.03-2.05-.04,1.65-2.04,3.31-4.07,4.96-6.11,1.08-.58,2.16-1.15,3.24-1.73.61-.03,1.21-.06,1.82-.08Z"/>
      <path class="cls-26" d="m70.89,221.58c-.31.67-.61,1.35-.92,2.02-.39-.04-.77-.08-1.16-.11-.01-.64-.03-1.28-.04-1.93.71,0,1.42.01,2.13.02Z"/>
      <path class="cls-1" d="m63.55,219.89c-.29.11-.64.37-.84.28-.2-.09-.24-.53-.36-.81.29-.11.64-.37.84-.29.2.09.24.53.35.81Z"/>
      <path class="cls-24" d="m68.81,223.49c.39.04.77.08,1.16.11-.01.35-.03.7-.05,1.06-.33-.02-.66-.03-.99-.02,0,0-.27-.25-.28-.26.07-.3.12-.59.15-.9Z"/>
      <path class="cls-4" d="m146.38,41.25c-1.88.26-3.77.53-5.65.79-.24-.06-.48-.11-.72-.14,0,0-.17.03-.17.03,0-.36,0-.72.01-1.08-.01-.21-.02-.43-.02-.64,0,0,.06-.08.06-.08.56-.74,1.11-1.47,1.67-2.21.03-.62.07-1.24.1-1.85.37-.99.73-1.97,1.1-2.96,0,0,0,0,0,0,.98-1.01,1.96-2.02,2.93-3.03.09.99.18,1.99.27,2.98.9,1.03,1.81,2.07,2.71,3.1.75,1.87,1.49,3.74,2.3,5.76-1.93-.28-3.27-.48-4.61-.67Z"/>
      <path class="cls-1" d="m142.77,33.12c-.37.98-.73,1.97-1.1,2.96-.39-.01-.77-.02-1.16-.03.11-.98.23-1.96.35-2.93.64,0,1.28,0,1.91.01Z"/>
      <path class="cls-1" d="m141.56,37.93c-.56.74-1.12,1.47-1.67,2.21.56-.74,1.12-1.47,1.67-2.21Z"/>
      <path class="cls-1" d="m139.83,40.22c0,.21,0,.43.02.64-.41-.15-.83-.31-1.24-.46.41-.06.82-.12,1.22-.18Z"/>
      <path class="cls-27" d="m175.66,41.42c.34-1.15.68-2.3,1.02-3.45,1.09.19,2.18.38,3.27.56,0,0,0-.01,0-.01-.76.85-1.53,1.71-2.29,2.56-.66.11-1.33.22-1.99.33Z"/>
      <path class="cls-1" d="m176.66,46.06c-.98-.59-1.96-1.19-2.94-1.78.64-.75,1.29-1.5,1.93-2.25.34,1.34.67,2.69,1.01,4.03Z"/>
      <path class="cls-16" d="m179.63,41.05c-.39.74-.78,1.48-1.16,2.21-.28-.74-.56-1.48-.83-2.22.67,0,1.33,0,2,0Z"/>
      <path class="cls-13" d="m105.81,252.53c-2.66-1.33-5.32-2.66-7.98-3.99,4.68-3.17,9.29-6.44,14.05-9.48,4.6-2.94,9.34-5.64,14.58-8.78-1.72-1.31-2.56-1.94-3.24-2.45.55-1.87,1.05-3.55,1.55-5.23,3.55.67,7.07,1.56,10.65,1.96,4.45.49,8.95.57,13.78.84-.44,5.99-2.04,10.65-9.5,12.65-4.95,1.33-8.94,5.87-13.73,8.21-3.04,1.48-6.76,1.57-10.18,2.28-1.97-1.12-3.94-2.23-7.14-4.04.96,3.06,1.4,4.47,1.87,5.95-1.79.79-3.25,1.44-4.7,2.08Z"/>
      <path class="cls-8" d="m160.7,210.65c.48,4.59-2.08,7.21-6.08,8.22-1.81.45-3.96-.47-6.79-.89-.08.43-.36,1.86-.69,3.59q-7.76,2.73-7.85-6.68c-5.15,2.02-9.84,3.86-14.52,5.7,1.01-1.17,1.89-2.5,3.06-3.48,2.36-1.97,4.88-3.74,7.63-5.82-2.56-1.63-4.13-2.64-5.7-3.65,3-.34,6.01-.68,9.01-1.02.68.62,1.36,1.24,2.05,1.86-.17,7.81.7,8.3,8.25,5.54,3.79-1.38,7.75-2.28,11.64-3.39Z"/>
      <path class="cls-20" d="m167.7,207.6c-.01-.31-.01-.63.01-.95-.67-.65-1.35-1.3-2.02-1.95-1.62-1.64-3.22-3.26-4.84-4.9-.01.04-.01.09-.02.14-.01.05-.01.09-.02.14-.02.2-.04.4-.07.6-.03,1.25-.07,2.49-.1,3.73-.64-.97-1.28-1.94-1.92-2.91-2.34.05-4.68.1-7.02.15-.01.33-.01.67-.01,1,1.4.12,2.79.24,4.19.37.09.57.17,1.13.26,1.7-2.7.65-5.41,1.27-8.11,1.93-2.41.6-4.82,1.23-7.23,1.85-.17,7.8.7,8.3,8.25,5.54,3.79-1.38,7.76-2.27,11.64-3.39,2.99-.33,5.98-.66,8.97-.99-.65-.69-1.3-1.37-1.96-2.06Zm-5.21,1.17c-.27-.09-.55-.19-.83-.29.15-.81.3-1.63.44-2.44.26.04.52.08.77.11-.12.88-.25,1.75-.38,2.62Z"/>
      <path class="cls-13" d="m169.67,209.66c-.65-.69-1.31-1.37-1.96-2.06.12-.09.36-.22.35-.26-.08-.24-.22-.47-.34-.69-.67-.65-1.35-1.3-2.02-1.95,4.33-1.4,8.65-2.8,12.98-4.2,2.64-.25,5.29-.51,7.93-.76,0,.3-.03.61-.07.91-1.87.4-3.73.8-6.58,1.41,4.06,1.95,6.85,3.28,9.64,4.62-.33.32-.66.65-.99.97-1,.33-2,.66-2.99.99-1.99,0-3.98.02-5.97.03,0,0,0-.02,0-.02-1.84-6.24-6.2-1.61-9.53-1.85,1.18.61,2.36,1.22,3.54,1.83-1.32.35-2.65.7-3.97,1.04Z"/>
      <path class="cls-18" d="m129.75,207.66c1.57,1.01,3.15,2.01,5.7,3.65-2.75,2.08-5.27,3.85-7.63,5.82-1.17.98-2.05,2.31-3.06,3.48,0,.33,0,.66-.02.99-1.78.62-3.53,1.4-5.35,1.79-.78.17-1.73-.48-2.6-.76,1.33-1.34,2.67-2.67,4-4,5.41-1.44,4.96-5.81,4.97-9.95,1.33-.34,2.66-.67,3.99-1.01Z"/>
      <path class="cls-16" d="m180.63,260.4c-.62-1.48-1.25-2.97-1.87-4.45,1.96-.21,3.91-.42,5.87-.62,2.3,1.23,4.6,2.46,6.91,3.68-.19.46-.38.92-.57,1.39h-10.32Z"/>
      <path class="cls-6" d="m105.81,252.53c1.46-.65,2.91-1.29,4.7-2.08-.46-1.48-.91-2.89-1.87-5.95,3.19,1.81,5.17,2.92,7.14,4.04-2.33,2-4.66,3.99-6.98,5.99l-2.99-1.99Z"/>
      <path class="cls-7" d="m162.68,218.62c5,.34,10,.69,14.99,1.03-.02.36-.03.73-.05,1.09-1.32-.03-2.64-.07-3.96-.1-1.68,0-3.35,0-5.03.01-2-.05-4-.09-6-.14.01-.63.03-1.26.05-1.89Z"/>
      <path class="cls-20" d="m173.64,208.62c-1.18-.61-2.36-1.22-3.54-1.83,3.33.25,7.69-4.39,9.53,1.85-2,0-3.99-.01-5.99-.02Z"/>
      <path class="cls-13" d="m153.89,226.71c-.47-.76-1.05-1.3-.97-1.69.1-.49.72-1.11,1.2-1.18.34-.05,1.18.75,1.13,1.07-.08.53-.7.98-1.36,1.8Z"/>
      <path class="cls-10" d="m162.09,265.89c-.08-.28-.12-.42-.17-.57.13-.03.25-.07.38-.1-.06.19-.12.37-.21.67Z"/>
      <path class="cls-10" d="m160.64,260.5c.01.33.04.66.09.98-.03-.33-.06-.66-.09-.98Z"/>
      <path class="cls-20" d="m76.83,234.53c3.75-1.96,7.53-3.88,11.24-5.92.74-.41,1.21-1.31,1.8-1.98.65-.02,1.3-.04,1.95-.06,3.66-.66,7.32-1.31,10.97-1.97.68.67,1.36,1.34,2.04,2.01-.33,0-.76-.12-.98.04-5.48,3.97-11.96,5.23-18.24,7.17-2.17.67-3.59,3.49-5.6,5.02-1.52,1.16-3.41,1.83-5.14,2.71.32-1.74.63-3.48.95-5.21.33-.6.67-1.2,1-1.81Z"/>
      <path class="cls-13" d="m75.83,236.33c-.32,1.74-.63,3.48-.95,5.21,0,0,0,0,0,0-2.34.98-4.68,1.95-7.01,2.93-2.64,1.02-5.28,2.05-7.93,3.07-.34,0-.67,0-1.01,0-1,0-2,0-2.99,0,.33-2,.66-4,.99-6,0,0-.01.01-.01.01.68-.64,1.37-1.27,2.05-1.91,5.62-1.1,11.24-2.21,16.86-3.31Z"/>
      <path class="cls-9" d="m104.83,226.61c-.68-.67-1.36-1.34-2.04-2.01,0-.33.01-.67.02-1l2.02-1.76s-.01-.33-.01-.33c1.32-.97,2.65-1.93,3.98-2.9.35.31.69.63,1.04.94,1.31.7,2.61,1.4,3.92,2.11.2,1.45.41,2.89.68,4.83-3.3-.05-6.07,5.98-9.61.12Z"/>
      <path class="cls-23" d="m113.76,221.66c-1.31-.7-2.61-1.4-3.92-2.11.28-.64.57-1.28.85-1.92,3.37-1.66,6.74-3.32,10.1-4.98,0,1.99,0,3.98,0,5.97-1.33,1.33-2.67,2.67-4,4-1.01-.32-2.02-.64-3.03-.97Z"/>
      <path class="cls-26" d="m59.94,247.55c2.64-1.02,5.28-2.05,7.93-3.07,1.68.36,3.36.72,5.04,1.08-1,.34-2,.67-2.99,1.01-2.67.97-5.34,1.94-8,2.92-.66-.64-1.31-1.29-1.97-1.93Z"/>
      <path class="cls-21" d="m61.91,249.48c2.67-.97,5.33-1.94,8-2.92.17,1.43.33,2.86.56,4.81-3.02-.67-5.79-1.28-8.56-1.89Z"/>
      <path class="cls-20" d="m72.9,245.55c-1.68-.36-3.36-.72-5.04-1.08,2.34-.98,4.68-1.95,7.01-2.93.3,1.81,1.25,3.93-1.98,4.01Z"/>
      <path class="cls-11" d="m172.65,230.56c2-2.11,7.33-2.72,9.01-1.04-1.04,1.04-2.08,2.08-3.11,3.11-1.97-.69-3.93-1.39-5.9-2.08Z"/>
      <path class="cls-22" d="m178.54,232.64c1.04-1.04,2.07-2.08,3.11-3.11,1.99.7,3.98,1.39,5.97,2.09-1.01,1-2.01,2-3.02,2.99-1.33-.32-2.65-.64-3.98-.96-.68-.35-1.36-.69-2.04-1.04l-.05.03Z"/>
      <path class="cls-10" d="m199.75,276.47c.29-.66.58-1.33.86-1.99-.29.66-.58,1.33-.86,1.99Z"/>
      <path class="cls-11" d="m178.59,232.61c.68.35,1.36.69,2.04,1.04-.68-.35-1.36-.69-2.04-1.04Z"/>
      <path class="cls-26" d="m75.83,236.33c-5.62,1.1-11.24,2.21-16.86,3.31-.66-.05-1.32-.1-1.98-.14.32-1.31.64-2.62.96-3.93,5-1.31,10-2.62,15.01-3.92,1.29.96,2.58,1.92,3.87,2.88-.34.6-.67,1.2-1.01,1.81Z"/>
      <path class="cls-20" d="m56.93,241.54c-.33,2-.66,4-.99,6-.66.34-1.32.69-1.98,1.03-1.34.65-2.67,1.3-4.01,1.95-.61.48-1.21.95-1.88,1.47-.69-4.19,2.03-7.33,8.86-10.46Z"/>
      <path class="cls-13" d="m49.95,250.53c1.34-.65,2.67-1.3,4.01-1.95-.56,2.24-1.32,4.09-4.01,1.95Z"/>
      <path class="cls-20" d="m56.99,239.5c.66.05,1.32.1,1.98.14-.68.64-1.37,1.27-2.05,1.91.02-.68.05-1.37.07-2.05Z"/>
      <path class="cls-27" d="m159.68,16.12c4.27,3.82,4.24,6.69-.23,9.46,1.79,1.18,3.52,2.32,5.25,3.46.33.34.65.67.98,1.01.33.67.67,1.34,1,2.01-.04.68-.07,1.36-.11,2.04-1.65-.72-3.3-1.45-4.95-2.17-1.87-.68-3.75-1.37-5.62-2.05-1.44-1.92-2.88-3.84-4.32-5.76-.32-2.34-.64-4.67-.97-7.01,2.99-.33,5.98-.66,8.97-.99Z"/>
      <path class="cls-1" d="m150.71,17.12c.32,2.34.64,4.67.97,7.01-1.83.53-3.67,1.05-5.72,1.64-.09,1.44-.17,2.88-.26,4.31-.98,1.01-1.96,2.02-2.93,3.03.38-4.36-.86-8.64,2.37-13,1.83-2.47,3.11-3.09,5.58-2.99Z"/>
      <path class="cls-17" d="m166.57,34.11c.04-.68.07-1.36.11-2.04-.33-.67-.67-1.34-1-2.01-.33-.34-.65-.67-.98-1.01.98-2.31,1.95-4.63,2.93-6.94.69.32,1.38.64,2.07.96,0,0,0-.01,0-.01.64.68,1.28,1.36,1.92,2.04.01.33.02.67.04,1-1,3.66-2,7.31-2.99,10.97-.67-.33-1.33-.67-2-1-.02-.65-.05-1.3-.07-1.95Z"/>
      <path class="cls-14" d="m171.6,25.09c-.64-.68-1.28-1.36-1.92-2.04.64.68,1.28,1.36,1.92,2.04Z"/>
      <path class="cls-22" d="m123.75,185.69c-1.1-.08-2.2-.16-3.29-.24-.21-.37-.43-.73-.64-1.1,1.67-1.23,3.34-2.46,5.01-3.69,2.97-.66,5.94-1.32,8.91-1.98,2.99-.67,5.99-1.33,8.98-2,.64-.01,1.28-.03,1.93-.04,2.07,4.99,6.55,7.01,11.06,9.01-4.76,1.68-9.52,3.36-14.46,5.11.12,1,.29,2.44.47,3.89-3.98-2.66-7.97-5.32-11.95-7.98-1.21-5.18-3.8-1.88-6-.98Z"/>
      <path class="cls-14" d="m157.66,175.73h.01c-1.03-.46-2.07-.91-2.23-.98-.65-3.68-1.21-6.83-1.77-9.98-1.09-1.31-2.15-2.64-3.29-3.91-1.85-2.04-3.75-4.03-5.62-6.05-.03,2.97-.07,5.93-.1,8.89-.32,3.5-.64,6.99-.97,10.49-.66-.05-1.33-.1-2-.15.36-3.45.72-6.89,1.08-10.34,0-.99,0-1.97-.01-2.96-5.59,3.66-4.42,10.14-6.91,14.94,2.66.39,4.76.7,6.86,1,.64-.01,1.28-.02,1.93-.03,4.36.76,8.73,1.52,13.09,2.28h0c-.02-1.07-.05-2.13-.07-3.2Zm-10.61-13.09h.41v3.02c-.14,0-.28.02-.41.02v-3.04Z"/>
      <path class="cls-21" d="m144.76,154.82c-.03,2.96-.07,5.93-.1,8.89-.63,0-1.26,0-1.89,0,0-.99,0-1.97,0-2.96.31-1.04,1.18-2.36.83-3.06-2.92-5.84-.41-10.85,2.09-15.9,2.23-5.79,4.04-11.63,2.12-17.91,1.22-.06,2.45-.12,3.17-.15.26,3.25.49,6.18.73,9.1-.01,1-.02,2-.03,3-.61.44-1.59.76-1.77,1.34-1.78,5.87-3.44,11.77-5.13,17.67Z"/>
      <path class="cls-14" d="m139.97,156.85c-1.86,4.98-3.43,9.18-5.08,13.6-4.59-4.9-2.26-11.71,5.08-13.6Z"/>
      <path class="cls-28" d="m133.73,178.69c-2.97.66-5.94,1.32-8.91,1.98,0-.64-.01-1.29-.02-1.93,1.46-1.83,2.91-3.66,4.64-5.83,1.27,2.06,6.37.89,4.29,5.79Z"/>
      <path class="cls-14" d="m121.77,205.65c-.89.34-1.77.69-3.45,1.34.88-4.09,1.67-7.7,2.45-11.32.33-.67.66-1.34.99-2,.56.4,1.12.8,2.79,1.99-.97-2.12-1.4-3.05-1.82-3.98.68-1.33,1.35-2.66,2.03-3.99,1,.33,2,.66,2.99.99,3.08,2.74,3.35,6.31,2.98,10.07-5.59-1.08-7.49,2.63-8.96,6.9Z"/>
      <path class="cls-15" d="m127.75,188.67c-1-.33-2-.66-2.99-.99-.34-.67-.67-1.33-1.01-2,2.2-.9,4.8-4.19,6,.98-.67.67-1.33,1.34-2,2Z"/>
      <path class="cls-15" d="m122.73,191.68c.42.93.85,1.85,1.82,3.98-1.67-1.19-2.23-1.59-2.79-1.99.32-.66.64-1.32.97-1.99Z"/>
      <path class="cls-29" d="m125.68,127.88c.03-1.34.06-2.68.1-4.02,1.65,0,3.3-.01,4.95-.02-.02.66-.04,1.32-.06,1.97-.97,4.66-1.94,9.32-2.9,13.98-.67,0-1.35,0-2.02.01-.33-.34-.66-.67-1-1.01.01-1.99.03-3.98.04-5.98.3-1.65.59-3.3.89-4.95Z"/>
      <path class="cls-26" d="m125.74,139.82c.67,0,1.35,0,2.02-.01.67,2.66,1.34,5.33,2.02,7.99-.19,2.36-.38,4.72-.6,7.39-1.51-1.08-2.45-1.76-3.39-2.43,0-.66,0-1.31-.01-1.96-.01-3.65-.02-7.31-.03-10.96Z"/>
      <path class="cls-24" d="m125.74,139.82c.01,3.65.02,7.31.03,10.96-2.41-3.81-2.89-7.79-1.03-11.97.33.34.66.67,1,1.01Z"/>
      <path class="cls-23" d="m129.77,147.79c-.67-2.66-1.34-5.33-2.02-7.99.97-4.66,1.94-9.32,2.91-13.98.39.03.77.05,1.16.08,0,.27-.02.55-.05.82.32,6.69.65,13.38.97,20.06-.99.34-1.98.67-2.97,1.01Z"/>
      <path class="cls-21" d="m132.75,146.78c-.32-6.69-.65-13.37-.97-20.06,2.85-.27,3.35,1.08,4.17,3.8,1.71,5.62-.26,10.86-.25,16.25-.98,0-1.96,0-2.95.01Z"/>
      <path class="cls-24" d="m151.69,132.82c-.23-2.93-.47-5.85-.73-9.1-.72.03-1.94.09-3.17.15-.04-.66-.08-1.33-.12-2,2.69,0,5.38,0,8.07,0-1.35,3.65-2.7,7.3-4.05,10.95Z"/>
      <path class="cls-24" d="m145.71,120.83c0-.66,0-1.31-.01-1.97,3.62-.94,2.38,1.32,1.98,3.02-.99.33-1.97.66-2.96.99.33-.68.66-1.36.99-2.04Z"/>
      <path class="cls-22" d="m145.71,120.83c-.33.68-.66,1.36-.99,2.04-.7.33-1.4.67-2.1,1,1.03-1.02,2.06-2.03,3.09-3.05Z"/>
      <path class="cls-21" d="m131.82,125.9c-.38-.03-.77-.05-1.16-.08.02-.66.04-1.32.06-1.98.71.36,1.42.72,2.13,1.09-.34.32-.69.64-1.04.97Z"/>
      <path class="cls-21" d="m134.71,122.82c-.13-.22-.28-.44-.38-.68-.01-.03.23-.17.36-.26.02.31.03.63.02.94Z"/>
      <path class="cls-14" d="m151.69,132.82c1.35-3.65,2.7-7.3,4.05-10.95,3.95-7.67,7.9-15.34,11.85-23.01,1.34-1.32,2.68-2.64,4.02-3.96,6.9.87-.09,4.12,1.02,5.98-1.99,3.67-3.97,7.33-5.96,11-3.33,5.33-6.66,10.65-9.98,15.98-1.34,2.64-2.68,5.29-4.02,7.93-.34.01-.67.02-1.01.03.01-1,.02-2,.04-3Z"/>
      <path class="cls-24" d="m144.71,118.86c-2.86.2-4.18-1.15-4-3.99,1.33,1.33,2.67,2.66,4,3.99Z"/>
      <path class="cls-18" d="m147.71,115.87c-.08.14-.16.28-.24.42.08-.14.15-.29.23-.43,0,0,.02.02.02.02Z"/>
      <path class="cls-8" d="m179.63,219.71c-.2-1.19-.41-2.38-.75-4.36,1.96.52,3.35.88,4.74,1.25,1.69,1.32,3.38,2.64,5.07,3.96,3.46.81,4.48,2.97,3.57,6.26-3.26-1.45-6.42-2.86-9.59-4.27-.03-.31-.05-.62-.06-.93.52-.41,1.03-.83,1.55-1.24-.87.1-1.74.2-2.6.3-.64-.32-1.28-.64-1.92-.96Z"/>
      <path class="cls-21" d="m188.69,220.56c-1.69-1.32-3.38-2.64-5.07-3.96.66,0,1.32,0,1.99,0,1.01.35,2.01.7,3.02,1.05.02.97.04,1.93.06,2.9Z"/>
      <path class="cls-23" d="m179.63,219.71c.64.32,1.28.64,1.92.96.35.32.7.63,1.05.95.01.31.03.62.06.93-2.35,1.27-4.15,1.01-5.04-1.81.02-.36.03-.73.05-1.09.65.02,1.3.04,1.95.07Z"/>
      <path class="cls-23" d="m168.63,220.65c1.68,0,3.35,0,5.03-.01-1.67,3.46-3.35,2.06-5.03.01Z"/>
      <path class="cls-11" d="m168.62,228.65c.63-.68,1.26-1.35,1.88-2.03.27.4.55.8.82,1.2-.91.27-1.82.53-2.73.8,0,0,.03.03.03.03Z"/>
      <path class="cls-10" d="m185.61,208.64c1-.33,2-.66,2.99-.99-1,.33-2,.66-2.99.99Z"/>
      <path class="cls-11" d="m186.53,200.65c.04-.3.06-.61.07-.91.66-.7,1.31-1.4,1.97-2.1.34,0,.68.02,1.02.03,2.35,1.98,4.69,3.97,7.04,5.95-1.04-.08-2.16.05-3.12-.27-2.36-.79-4.65-1.78-6.97-2.7Z"/>
      <path class="cls-1" d="m166.65,36.06c.67.33,1.33.67,2,1,0,.33,0,.66,0,.99-.33.33-.66.67-.99,1-.99,1.66-1.98,3.33-2.97,4.99-1.36,1.23-2.66,2.53-4.09,3.67-1.93,1.53-3.95,2.92-5.94,4.37,0,0,.02-.08.02-.08,2.29-3.3,4.59-6.61,6.88-9.91.7-1.01,1.41-2.01,2.11-3.01.99-1.01,1.97-2.01,2.96-3.02Z"/>
      <path class="cls-17" d="m154.67,52.08c1.98-1.45,4.01-2.85,5.94-4.37,1.43-1.13,2.73-2.44,4.09-3.67,2.88,5.08-1.69,7.02-4.41,9.23-.93.76-3.69-.73-5.62-1.2Z"/>
      <path class="cls-1" d="m151.69,51.03c.33.3.67.59,1,.89-.23.14-.47.28-.7.43-.1-.44-.2-.88-.3-1.32Z"/>
      <path class="cls-17" d="m167.67,39.05c.33-.33.66-.67.99-1-.33.33-.66.67-.99,1Z"/>
      <path class="cls-21" d="m156,29.89c1.87.68,3.75,1.37,5.62,2.05-.35.31-.71.62-1.07.92-.9-.11-2.54-.46-2.61-.28-1.7,4.93-5.93,3.08-9.26,3.57-.9-1.03-1.81-2.07-2.71-3.1,2-1.26,4-2.53,6.87-4.34-.61,2.25-.94,3.46-1.27,4.66.31.22.62.43.92.65,1.17-1.38,2.34-2.76,3.51-4.14Z"/>
      <path class="cls-16" d="m160.56,32.86c.36-.31.71-.62,1.07-.92,1.65.72,3.3,1.45,4.95,2.17.02.65.05,1.3.07,1.95-.99,1.01-1.97,2.01-2.96,3.02-1.11-.09-2.21-.18-3.47-.29.12-2.15.23-4.04.33-5.93Z"/>
      <path class="cls-1" d="m140,41.9c.24.03.48.07.72.14-.17.19-.33.39-.5.58-.07-.24-.15-.48-.22-.71Z"/>
      <path class="cls-19" d="m200.55,168.76c-1.64-3.01-3.29-6.02-4.93-9.04-2.01-4.64-4.02-9.28-6.03-13.93.01-3.66.03-7.32.04-10.99,5.25.9,11.1.33,14.27,6.19.31.58,1.75.54,2.66.79.67,4.32,1.33,8.65,2,12.97,0,0,0,0,0,0-.85-.76-1.91-1.39-2.5-2.32-1.11-1.76-1.95-3.7-3.45-6.63-.54,4.04-.97,6.58-1.17,9.14-.04.57.72,1.19,1.11,1.79,0,1,.01,2,.02,3-.3,1.54-.56,3.09-.9,4.62-.33,1.47-.74,2.93-1.12,4.39Z"/>
      <path class="cls-26" d="m189.63,134.81c-.01,3.66-.03,7.32-.04,10.99-1.55.07-3.1.15-6.04.29,2.21,2.63,3.9,4.09,4.67,5.93.21.51-2.3,2.16-3.74,3.44.17.34.65,1.33,1.13,2.31-2.66.34-5.33.67-7.99,1.01-1.32-1-2.64-2.01-3.95-3.01,1.05-4.98,2.11-9.96,3.16-14.95,2.15.05,5,.98,6.29-.04,2.05-1.64,3.06-4.58,4.51-6.97.67.34,1.34.67,2.01,1.01Z"/>
      <path class="cls-14" d="m186.54,112.89c4.04-3.9,8.08-7.81,12.12-11.71.18.15.36.3.54.45-2.33,5.88-4.66,11.76-7.11,17.92-.19-.05.75,0,1.49.41.74.41,1.27,1.18,1.89,1.79-.72.69-1.34,1.57-2.18,2.04-3.2,1.77-6.47,3.4-9.71,5.09-.68-.01-1.36-.02-2.05-.03,1.67-5.32,3.34-10.63,5.01-15.95Z"/>
      <path class="cls-18" d="m175.72,104.97c.46-1.16.93-2.33,1.62-4.06,1.17,1.64,2.04,2.86,2.99,4.19,1.1-1.42,2.19-2.82,3.27-4.22,2.7-2.62,5.41-5.24,8.11-7.86h3.54c-2.12,2.92-3.91,5.37-5.69,7.82-1.71,2.68-3.42,5.36-5.13,8.04-1.6,2.33-3.2,4.65-4.79,6.98-1-2.07-2.14-4.09-2.95-6.23-.56-1.46-.66-3.1-.96-4.66Z"/>
      <path class="cls-14" d="m208.56,154.77c-.67-4.32-1.33-8.65-2-12.97,0-3.99,0-7.98,0-11.97,3.01-.21,3.9,1.34,4.09,4.18.14,1.96,1.25,3.86,1.92,5.78h-.02c0,.32-.01.64-.02.97.02.69.04,1.37.06,2.06-.03,4.31-.05,8.61-.08,12.92-1.32-.32-2.64-.64-3.95-.97Z"/>
      <path class="cls-21" d="m179.63,115.86c1.6-2.33,3.2-4.65,4.8-6.98.36.01.72.02,1.07.04.35,1.32.7,2.64,1.04,3.96-1.67,5.32-3.34,10.64-5.01,15.95-.3.66-.61,1.32-.91,1.98-.02.32-.03.64-.04.95-.62.02-1.25.04-1.87.06-.71-1-1.41-2-2.12-3,.38-2.08.68-4.19,1.17-6.25.53-2.26,1.24-4.49,1.87-6.73Z"/>
      <path class="cls-14" d="m191.71,93.02c-2.7,2.62-5.41,5.24-8.11,7.86-.2-2.96-.74-5.96-.43-8.86.12-1.14,2.16-2.07,3.32-3.1,2.03-.33,4.07-.66,6.1-.98,0,.32,0,.65,0,.97,0,.34,0,.68,0,1.03-.3,1.03-.59,2.06-.89,3.1Z"/>
      <path class="cls-15" d="m178.71,131.84c.62-.02,1.25-.04,1.87-.06,1.72,4.39,4.65.85,7,1.06.01.32.02.64.04.96-1.45,2.39-2.46,5.33-4.51,6.97-1.29,1.03-4.14.1-6.29.04.63-2.99,1.26-5.98,1.89-8.97Z"/>
      <path class="cls-19" d="m212.58,139.79c-.68-1.93-1.79-3.82-1.92-5.78-.2-2.84-1.08-4.39-4.09-4.18.18-1.95.35-3.89.6-6.54,2.61,1.7,4.03,2.64,5.46,3.57.61,1.99,1.22,3.99,1.84,5.98-.04,1.63-.08,3.27-.12,4.9-.59.68-1.17,1.37-1.76,2.05Z"/>
      <path class="cls-28" d="m187.58,132.84c-2.35-.22-5.28,3.32-7-1.06.01-.32.03-.64.04-.95,1-.33,2-.66,3-1h6.02c-.98,1.42-1.52,2.22-2.06,3.01Z"/>
      <path class="cls-29" d="m185.5,108.92c-.36-.01-.71-.02-1.07-.04,1.71-2.68,3.42-5.36,5.13-8.04,2.27,4.51-1.94,5.77-4.06,8.08Z"/>
      <path class="cls-24" d="m214.46,132.84c-.61-1.99-1.23-3.99-1.84-5.98.29-.68.58-1.36.87-2.04.63-.03,1.27-.07,1.9-.1-.31,2.71-.62,5.41-.93,8.12Z"/>
      <path class="cls-29" d="m215.39,124.72c-.63.03-1.26.07-1.9.1-.97-3.14-2.55-6.35.97-9,.31,2,.62,4,.93,6,0,.97,0,1.93,0,2.9Z"/>
      <path class="cls-15" d="m183.62,129.83c-1,.33-2,.66-3,1,.3-.66.61-1.32.91-1.98.68.01,1.36.02,2.05.03.01.32.02.64.04.96Z"/>
      <path class="cls-25" d="m192.6,89.93c0-.34,0-.68,0-1.03,0,.34,0,.68,0,1.03Z"/>
      <path class="cls-26" d="m91.82,226.57c-.65.02-1.3.04-1.95.06-5,.65-9.99,1.3-14.99,1.95-.05-3.2,1.6-4.41,4.69-5.1,5.38-1.2,10.66-2.93,15.87-4.73,1.32-.46,2.26-2.04,3.37-3.11,1.63.31,3.25.61,4.88.92-.02.37-.03.73-.05,1.1-1.9,1.14-3.91,2.12-5.66,3.46-2.17,1.67-4.12,3.63-6.16,5.46Z"/>
      <path class="cls-26" d="m68.93,224.64c.33,0,.66,0,.99.02,0,1.3,0,2.6,0,3.89-3.37-.54-1.54-2.38-.99-3.91Z"/>
      <path class="cls-12" d="m121.77,205.65c1.47-4.27,3.38-7.98,8.96-6.9,1.88.87,3.69,2.21,5.66,2.52,3.97.63,3.89,2.57,2.36,5.37-3,.34-6.01.68-9.01,1.02-1.33.34-2.66.67-3.99,1.01-2.15.07-4.29.14-3.98-3.02Z"/>
      <path class="cls-29" d="m120.79,212.65c-3.37,1.66-6.74,3.32-10.1,4.98-.25-.01-.51-.02-.76-.03-.08-.51-.16-1.02-.24-1.53.07-1.11.14-2.22.22-3.34,2.7-.72,5.5-1.2,8.07-2.24,2.6-1.05,2.89.12,2.81,2.15Z"/>
      <path class="cls-23" d="m91.82,226.57c2.04-1.83,3.99-3.79,6.16-5.46,1.74-1.34,3.76-2.32,5.66-3.46.07.31.13.63.18.94.34.34.68.68,1.02,1.02,0,.63,0,1.26,0,1.89,0,0,.01.33.01.33-.67.59-1.35,1.17-2.02,1.76,0,.33-.01.67-.02,1-3.66.66-7.32,1.31-10.98,1.97Z"/>
      <path class="cls-27" d="m109.93,217.61c.25,0,.51.01.76.03-.28.64-.57,1.28-.85,1.92-.35-.31-.69-.63-1.04-.94.38-.33.75-.67,1.13-1Z"/>
      <path class="cls-20" d="m104.83,219.61c-.34-.34-.68-.68-1.02-1.02.27.05.54.06.82.04.1.21.23.4.3.62.03.1-.06.24-.1.36Z"/>
      <path class="cls-24" d="m212.58,139.79c.59-.68,1.17-1.37,1.76-2.05.06,1.68.13,3.36.19,5.05-.65.01-1.29.02-1.94.03-.02-.69-.04-1.37-.06-2.06.13-.09.39-.22.37-.26-.08-.25-.23-.48-.35-.72,0,0,.02,0,.02,0Z"/>
      <path class="cls-21" d="m186.6,179.76c-.61,1-1.22,2.01-2.14,3.51-.34-.19-1.62-.89-2.9-1.6-1.98-.65-3.97-1.31-5.95-1.97l.02.02c0-.33,0-.67,0-1-.88-2.47.17-3.53,2.58-4.07.81-.18,1.38-1.44,2.69-2.92-2.98,0-4.63,0-6.27,0-.33-2-.66-4.01-.99-6.01l2.01.99c3.64,2.68,7.28,5.37,10.92,8.05-1.87.54-3.73,1.07-6.17,1.77,2.43,1.26,4.31,2.23,6.2,3.21Z"/>
      <path class="cls-21" d="m173.67,155.76c1.32,1,2.64,2.01,3.95,3.01,4.99,2,9.97,3.99,14.96,5.99,2,2.31,4,4.63,5.99,6.94-4.45-1.95-8.91-3.89-13.36-5.84.07-.17.14-.35.2-.52-1.93-.85-3.86-1.7-5.8-2.56-2.32-.34-4.65-.68-6.97-1.02.34-2,.68-4,1.01-6Z"/>
      <path class="cls-18" d="m186.6,179.76c-1.88-.98-3.77-1.95-6.2-3.21,2.44-.7,4.3-1.24,6.17-1.77,2.36,2.36,4.71,4.71,7.07,7.06-1.36-.05-2.71-.1-4.07-.15,0,0,.04.03.04.03-.37-.35-.73-.69-1.1-1.04l-1.92-.93Z"/>
      <path class="cls-26" d="m172.65,161.76c2.32.34,4.65.68,6.97,1.02-1.32,1.32-2.65,2.63-3.97,3.95-.67-.33-1.34-.66-2.01-.99-.35-1.33-.69-2.67-1.04-4l.04.03Z"/>
      <path class="cls-18" d="m197.58,186.69c-1.67.33-3.33.66-5,.99,0,0,.02.03.02.03,0-.36,0-.72,0-1.08.34-.99.67-1.98,1.01-2.97,1.32,1.01,2.64,2.02,3.96,3.03Z"/>
      <path class="cls-20" d="m200.57,183.8c.33,1.29.66,2.59,1,3.88-.98-.68-1.95-1.36-2.93-2.05.64-.61,1.29-1.22,1.93-1.83Z"/>
      <path class="cls-26" d="m189.58,181.69c1.36.05,2.71.1,4.07.15,0,.56,0,1.12.01,1.68-1.36-.61-2.72-1.22-4.08-1.83Z"/>
      <path class="cls-23" d="m199.57,174.77c-.33.98-.66,1.96-.99,2.94-.33-.34-.66-.67-.99-1.01,0-.65.02-1.3.02-1.95.65,0,1.31.01,1.96.02Z"/>
      <path class="cls-26" d="m197.61,174.75c0,.65-.02,1.3-.02,1.95-.52-.41-1.04-.82-1.56-1.23.53-.24,1.06-.48,1.58-.72Z"/>
      <path class="cls-8" d="m174.64,171.74h6.27c-1.31,1.48-1.88,2.74-2.69,2.92-2.41.54-3.46,1.6-2.58,4.07-.34.33-.68.66-1.02.98-.31,0-.62,0-.94-.02-.48.27-.95.53-1.43.8l1.4,1.22-.02-.02c.01.37.03.73.04,1.1-3-.53-6.01-1.43-9.01-1.43-1.66,0-3.32,1.51-4.98,2.34-.67.66-1.34,1.32-2,1.98-.66,0-1.32-.01-1.98-.02-4.5-2-8.99-4.02-11.06-9.01,4.36.76,8.73,1.52,13.09,2.28,2.81,0,5.61,0,8.42,0,0-.73.01-1.47.02-2.2-2.84-.33-5.67-.66-8.51-.99,0,0,0-.01,0-.01.34-.35.68-.7,1.02-1.05.66.02,1.32.04,1.98.06,2.32-.34,4.65-.67,6.97-1.01,2.33-.66,4.65-1.32,6.98-1.98Z"/>
      <path class="cls-19" d="m188.57,197.63c-.66.7-1.31,1.4-1.97,2.1-2.64.26-5.29.51-7.93.77-.51-4.39-3.05-5.62-6.81-3.86-4.02,1.88-6.83,1.06-8.9-2.76.97-1.11,1.85-2.13,2.73-3.14.98-.02,1.97-.05,2.95-.07,1.68.5,3.37.99,5.07,1.5,1.72-3.62,4.51-3.96,7.48-1.63,2.67,2.1,4.94,4.71,7.38,7.09Z"/>
      <path class="cls-22" d="m168.64,190.67c-.98.02-1.97.05-2.95.07-2.67-.69-5.34-1.37-8-2.06,0-1,0-2,0-3,.67-.66,1.34-1.32,2-1.98,2.99,2.32,5.97,4.65,8.95,6.97Z"/>
      <path class="cls-7" d="m173.68,179.69c.31,0,.62.02.94.02.34,0,.68.01,1.02.02,0,0-.02-.02-.02-.02.68.99,1.36,1.98,2.04,2.97,0,0-.04.04-.04.04-.66-.04-1.32-.08-1.99-.12-.67-.3-1.33-.6-2-.89,0,0,.02.02.02.02.01-.67.02-1.35.04-2.02Z"/>
      <path class="cls-15" d="m173.63,181.7c.67.3,1.34.6,2,.89-.33.7-.66,1.4-.99,2.1h0c-.32-.63-.65-1.26-.97-1.9-.01-.37-.03-.73-.04-1.1Z"/>
      <path class="cls-19" d="m185.15,190.3c.07.13.21.27.2.4-.01.12-.17.24-.27.35.02-.25.04-.5.07-.75Z"/>
      <path class="cls-15" d="m174.64,184.69c-.07.14-.15.28-.22.42.08-.14.15-.28.23-.42,0,0,0,0,0,0Z"/>
      <path class="cls-15" d="m177.66,182.67c-.68-.99-1.36-1.98-2.04-2.97,1.98.66,3.97,1.31,5.95,1.97-1.3.33-2.61.67-3.91,1Z"/>
      <path class="cls-21" d="m188.24,183.34c.29.55.58,1.09.87,1.64-.19.11-.39.21-.58.32-.3-.54-.6-1.08-.89-1.63.2-.11.4-.22.6-.33Z"/>
      <path class="cls-26" d="m192.61,186.63c0,.36,0,.72,0,1.08,0-.36,0-.72,0-1.08Z"/>
      <path class="cls-26" d="m188.52,180.68c.37.35.73.69,1.1,1.04-.37-.35-.73-.69-1.1-1.04Z"/>
      <path class="cls-14" d="m202.55,156.76c-.39-.6-1.15-1.23-1.11-1.79.2-2.56.62-5.1,1.17-9.14,1.5,2.93,2.34,4.86,3.45,6.63.59.93,1.65,1.56,2.5,2.32,0,3.08,0,6.15,0,8.61-1.68-1.85-3.84-4.24-6.01-6.62Z"/>
      <path class="cls-19" d="m202.57,171.75c-.34-.34-.69-.68-1.03-1.02.34.34.69.68,1.03,1.02Z"/>
      <path class="cls-11" d="m185.61,157.76c-.48-.98-.96-1.97-1.13-2.31,1.43-1.28,3.95-2.93,3.74-3.44-.77-1.84-2.46-3.3-4.67-5.93,2.94-.14,4.49-.21,6.04-.29,2.01,4.64,4.02,9.28,6.03,13.93-.37.37-.74.74-1.1,1.1-2.97-1.02-5.94-2.04-8.9-3.06Z"/>
      <path class="cls-19" d="m185.61,157.76c2.97,1.02,5.94,2.04,8.9,3.06-.64,1.31-1.29,2.62-1.93,3.93-4.99-2-9.97-3.99-14.96-5.99,2.66-.34,5.33-.67,7.99-1.01Z"/>
      <path class="cls-23" d="m166.67,111.87c1.99-3.67,3.97-7.33,5.96-11,.34,1.67.67,3.34,1.01,5.01h0c.33,1.34.67,2.67,1,4-.32.33-.65.67-.97,1-.34,0-.69,0-1.03,0-.64.99-1.28,1.98-1.93,2.97-1.57,2-3.14,4.01-5.37,6.85.58-3.89.95-6.35,1.32-8.82Z"/>
      <path class="cls-6" d="m173.68,110.88c.32-.33.65-.67.97-1,.36-1.64.71-3.27,1.07-4.91.3,1.56.4,3.2.96,4.66.81,2.14,1.95,4.16,2.95,6.23-.63,2.24-1.33,4.46-1.87,6.73-.49,2.06-.79,4.16-1.17,6.25-.33,0-.66-.01-.98-.02-.31-.99-.61-1.99-.92-2.98-.34-4.99-.67-9.97-1.01-14.96Z"/>
      <path class="cls-23" d="m173.64,105.88c.13-.44.25-.87.38-1.31.13.08.25.17.38.25-.25.35-.5.71-.75,1.06,0,0,0,0,0,0Z"/>
      <path class="cls-11" d="m156,29.89c-1.17,1.38-2.34,2.76-3.51,4.14-.31-.22-.62-.43-.92-.65.33-1.21.66-2.41,1.27-4.66-2.87,1.81-4.87,3.08-6.87,4.34-.09-.99-.18-1.99-.27-2.98.09-1.44.17-2.87.26-4.31,2.05-.59,3.88-1.11,5.72-1.64,1.44,1.92,2.88,3.84,4.32,5.76Z"/>
      <path class="cls-29" d="m157.68,188.68c2.67.69,5.34,1.37,8,2.06-.88,1.02-1.77,2.03-2.73,3.14,2.07,3.81,4.88,4.64,8.9,2.76,3.76-1.76,6.3-.53,6.81,3.86-4.33,1.4-8.65,2.8-12.98,4.2-1.61-1.64-3.23-3.27-4.84-4.91-1.57-2.72-3.25-3.72-6.89-2.84-4.61,1.11-9.61.59-14.67.79,2.12,2.41,3.48,3.95,4.83,5.48-.23.56-.46,1.11-.69,1.67,2.76-.75,5.51-1.5,8.27-2.24,1.39.12,2.79.25,4.18.37.09.57.18,1.14.27,1.71-2.7.64-5.41,1.27-8.11,1.93-2.42.59-4.82,1.23-7.23,1.85-.68-.62-1.36-1.24-2.04-1.87,1.53-2.8,1.61-4.74-2.36-5.37-1.97-.31-3.78-1.65-5.66-2.52.37-3.76.1-7.33-2.98-10.07.67-.67,1.33-1.34,2-2,3.98,2.66,7.97,5.32,11.95,7.98,1.87-.44,3.82-.68,5.59-1.38,3.52-1.39,6.93-3.05,10.38-4.59Z"/>
      <path class="cls-17" d="m151.7,202.65c-2.76.75-5.51,1.5-8.27,2.24.23-.56.46-1.11.69-1.67-1.36-1.54-2.71-3.08-4.83-5.48,5.07-.19,10.07.32,14.67-.79,3.64-.88,5.31.12,6.89,2.84-.03.3-.06.6-.11.89-.67.27-1.34.54-2.01.81-2.34.05-4.68.11-7.02.16-.4.22-.79.44-1.19.65.39.11.79.23,1.18.34h0Z"/>
      <path class="cls-29" d="m158.73,201.5c.67-.27,1.34-.54,2.01-.81-.03,1.24-.06,2.49-.09,3.73-.64-.97-1.28-1.95-1.92-2.92Z"/>
      <path class="cls-13" d="m161.67,208.49c.15-.82.29-1.63.44-2.45.26.04.51.08.77.12-.13.87-.25,1.74-.38,2.62-.28-.1-.56-.19-.83-.29Z"/>
      <path class="cls-29" d="m151.7,202.65c-.39-.11-.79-.23-1.18-.34.4-.22.79-.44,1.19-.65-.01.33-.02.66,0,.99Z"/>
      <path class="cls-10" d="m167.71,206.65c.12.23.26.45.34.69.01.04-.23.17-.35.26-.01-.32,0-.64,0-.96Z"/>
      <path class="cls-20" d="m102.82,223.59c.67-.59,1.35-1.18,2.02-1.76-.67.59-1.35,1.18-2.02,1.76Z"/>
      <path class="cls-1" d="m165.68,30.05c.33.67.67,1.34,1,2.01-.33-.67-.67-1.34-1-2.01Z"/>
      <path class="cls-11" d="m157.68,188.68c-3.46,1.55-6.87,3.2-10.38,4.59-1.77.7-3.72.93-5.59,1.38-.17-1.45-.35-2.89-.47-3.89,4.94-1.74,9.7-3.43,14.46-5.11.66,0,1.32.01,1.98.02,0,1,0,2,0,3Z"/>
      <path class="cls-11" d="m160.68,174.73c-.66-.02-1.32-.04-1.98-.06-1.27-5.43-2.54-10.87-3.82-16.3h-1.21v6.41c-1.09-1.3-2.15-2.64-3.29-3.9-1.85-2.04-3.74-4.04-5.62-6.05,1.69-5.89,3.34-11.8,5.13-17.67.17-.57,1.16-.9,1.77-1.34.34-.01.67-.02,1.01-.03.47,1.49.93,2.98,1.36,4.35,1.42-.14,2.54-.25,3.65-.35v21.26c.88-.67,1.94-1.48,2.99-2.28,1.63.33,3.27.65,4.9.98-.3,3-.6,5.99-.9,8.99,1.67,3.99-3.05,3.74-3.99,6Z"/>
      <path class="cls-24" d="m153.67,164.77v-6.4h1.21c1.27,5.43,2.54,10.87,3.82,16.3-.34.35-.68.7-1.02,1.05-1.03-.45-2.07-.9-2.23-.97-.65-3.68-1.21-6.83-1.77-9.98Z"/>
      <path class="cls-23" d="m157.66,175.73c2.84.33,5.67.66,8.51.99,0,.73-.01,1.47-.02,2.2-2.81,0-5.62,0-8.42,0-.02-1.06-.05-2.13-.07-3.19Z"/>
      <path class="cls-11" d="m142.78,163.7c.63,0,1.26,0,1.89,0-.32,3.49-.64,6.99-.97,10.48-.67-.05-1.33-.1-2-.15.36-3.45.72-6.89,1.08-10.34Z"/>
      <path class="cls-11" d="m147.46,162.64v3.03c-.14,0-.27.01-.41.02v-3.04c.14,0,.27,0,.41,0Z"/>
      <path class="cls-26" d="m166.67,111.87c-.37,2.46-.74,4.92-1.32,8.82,2.23-2.84,3.8-4.85,5.37-6.85-1.02,4.99-2.03,9.98-3.05,14.98.31,1.3.61,2.6.92,3.89-1.97.36-3.94.72-5.91,1.08.02-.82.08-1.63.04-2.45-.06-1.32-.17-2.64-.27-3.96-1.26.48-2.51.96-3.77,1.44-.66-.32-1.33-.65-1.99-.97,3.33-5.33,6.66-10.65,9.98-15.98Z"/>
      <path class="cls-22" d="m156.69,127.85c.66.32,1.33.65,1.99.97-.33,3.65-.67,7.31-1,10.96-1.11.11-2.22.22-3.65.35-.43-1.37-.9-2.86-1.36-4.35,1.34-2.64,2.68-5.29,4.02-7.93Z"/>
      <path class="cls-12" d="m182.6,221.62c-.35-.32-.7-.63-1.05-.95.87-.1,1.73-.2,2.6-.3-.52.41-1.03.83-1.55,1.24Z"/>
      <path class="cls-10" d="m175.61,128.82c.33,0,.66,0,.98.02.7,1,1.41,2,2.12,3-.63,2.99-1.26,5.98-1.89,8.98-1.05,4.98-2.1,9.96-3.16,14.95-.34,2-.68,4-1.01,6,0,0-.04-.03-.04-.03-.34,0-.68,0-1.02.01.33-7.31.67-14.62,1-21.92,1-3.67,2.01-7.33,3.01-11Z"/>
      <path class="cls-19" d="m212.56,139.78c.12.24.27.47.35.72.01.04-.24.17-.37.26.01-.33.02-.65.02-.98Z"/>
      <path class="cls-7" d="m171.6,161.74c.34,0,.68,0,1.02-.01.34,1.33.69,2.67,1.04,4,.33,2,.66,4.01.99,6.01-2.33.66-4.65,1.32-6.98,1.98,0-.67,0-1.33,0-2,.59-1,1.18-1.99,1.77-2.99-.59,0-1.19,0-1.78,0-.99,0-1.99,0-2.98-.01.3-3,.6-5.99.9-8.99.05-.33.1-.66.14-.99,1.3,0,2.61,0,3.91,0,.66,1,1.31,2,1.97,2.99Z"/>
      <path class="cls-15" d="m175.64,179.73c-.34,0-.68-.01-1.02-.02.34-.33.68-.66,1.02-.98,0,.33,0,.67,0,1Z"/>
      <path class="cls-22" d="m164.67,168.72c.99,0,1.99,0,2.98.01,0,.99,0,1.99.01,2.98,0,.67,0,1.33,0,2-2.32.34-4.65.67-6.97,1.01.94-2.26,5.66-2.01,3.99-6Z"/>
      <path class="cls-15" d="m173.68,179.69c-.01.67-.02,1.35-.04,2.02-.47-.41-.93-.82-1.4-1.22.48-.27.95-.53,1.43-.8Z"/>
      <path class="cls-10" d="m167.67,128.82c1.02-4.99,2.03-9.98,3.05-14.98.64-.99,1.29-1.98,1.93-2.97,0,5.66,0,11.31,0,16.97-1.66.33-3.31.65-4.97.98Z"/>
      <path class="cls-26" d="m172.64,127.84c0-5.66,0-11.31,0-16.97.34,0,.69,0,1.03,0,.34,4.99.67,9.97,1.01,14.96-.69.67-1.37,1.33-2.06,2Z"/>
      <path class="cls-21" d="m172.64,127.84c.69-.67,1.37-1.33,2.06-2,.31.99.61,1.99.92,2.98-1.01,3.67-2.01,7.33-3.01,11-.97,0-1.95,0-2.92,0-.36-2.37-.73-4.74-1.09-7.11-.31-1.3-.61-2.6-.92-3.89,1.66-.33,3.31-.65,4.97-.98Z"/>
      <path class="cls-23" d="m157.68,139.78c.33-3.65.67-7.31,1-10.96,1.26-.48,2.51-.96,3.77-1.44.09,1.32.21,2.64.27,3.96.03.81-.02,1.63-.04,2.45,1.19.82,2.37,1.65,3.84,2.66v15.37c-.62-1.33-1.58-2.61-1.78-3.99-.41-2.85-.41-5.76-.58-8.64-.57-.04-1.14-.08-1.71-.12-.59,6.56-1.18,13.12-1.77,19.68-1.06.81-2.11,1.61-2.99,2.28v-21.26Z"/>
      <path class="cls-26" d="m160.67,158.75c.59-6.56,1.18-13.12,1.77-19.68.57.04,1.14.08,1.71.12.17,2.88.17,5.79.58,8.64.2,1.39,1.16,2.67,1.78,3.99-.26,2.31-.53,4.61-.8,6.92-.05.33-.09.66-.14.99-1.64-.33-3.27-.65-4.91-.98Z"/>
      <path class="cls-13" d="m165.72,158.74c.27-2.31.53-4.61.8-6.92,0-5.29,0-10.58,0-15.37-1.46-1.02-2.65-1.84-3.84-2.66,1.97-.36,3.94-.72,5.91-1.08.36,2.37.73,4.74,1.09,7.1-.02,6.31-.03,12.62-.05,18.93-1.3,0-2.61,0-3.91,0Z"/>
      <path class="cls-24" d="m169.63,158.75c.02-6.31.03-12.62.05-18.93.97,0,1.95,0,2.92,0-.33,7.31-.67,14.62-1,21.92-.66-1-1.31-2-1.97-2.99Z"/>
      <path class="cls-8" d="m167.66,171.72c0-.99,0-1.99-.01-2.98.59,0,1.19,0,1.78,0-.59,1-1.18,1.99-1.77,2.99Z"/>
    </g>
  </g>
</svg>