<?xml version="1.0" encoding="UTF-8"?>
<svg id="Calque_2" data-name="Calque 2" xmlns="http://www.w3.org/2000/svg" viewBox="0 0 177.45 53.76">
  <defs>
    <style>
      .cls-1 {
        fill: #fbfbfb;
      }
    </style>
  </defs>
  <g id="Calque_1-2" data-name="Calque 1">
    <g>
      <path class="cls-1" d="m136.97,21.95V.29h-13.36v52.57c-.04.3-.09.59-.12.89h13.48v-.12c3.08-20.81,19.61-37.24,40.48-40.17V0c-16.28,1.77-30.62,9.95-40.48,21.95Z"/>
      <path class="cls-1" d="m0,53.76h13.46c3.04-20.87,19.59-37.36,40.5-40.29V0C25.67,3.08,3.19,25.5,0,53.76Z"/>
      <path class="cls-1" d="m66.44.07v-.07h-13.36v53.47h13.36V13.56c20.64,3.15,36.92,19.51,39.93,40.2h13.46C116.67,25.69,94.47,3.39,66.44.07Z"/>
    </g>
  </g>
</svg>