<?xml version="1.0" encoding="UTF-8"?>
<svg id="Calque_2" data-name="Calque 2" xmlns="http://www.w3.org/2000/svg" viewBox="0 0 464.52 228.88">
  <defs>
    <style>
      .cls-1 {
        fill: none;
      }

      .cls-2 {
        fill: #156635;
      }

      .cls-3 {
        fill: #2d2e48;
      }
    </style>
  </defs>
  <g id="Calque_1-2" data-name="Calque 1">
    <path class="cls-3" d="m136.97,21.95V.29h-13.36v52.57c-.04.3-.09.59-.12.89h13.48v-.12c3.08-20.81,19.61-37.24,40.48-40.17V0c-16.28,1.77-30.62,9.95-40.48,21.95Z"/>
    <path class="cls-3" d="m0,53.76h13.46c3.04-20.87,19.59-37.36,40.5-40.29V0C25.67,3.08,3.19,25.5,0,53.76Z"/>
    <path class="cls-3" d="m66.44.07v-.07h-13.36v53.47h13.36V13.56c20.64,3.15,36.92,19.51,39.93,40.2h13.46C116.67,25.69,94.47,3.39,66.44.07Z"/>
    <path class="cls-2" d="m342.99,88.89c-11.19-13.98-28.38-22.95-47.68-22.95-33.72,0-61.05,27.33-61.05,61.05s27.33,61.05,61.05,61.05c19.3,0,36.5-8.97,47.68-22.95v22.95h13.36V29.24h-13.36v59.65Zm-47.68,85.78c-26.33,0-47.68-21.35-47.68-47.68s21.35-47.68,47.68-47.68,47.68,21.35,47.68,47.68-21.35,47.68-47.68,47.68Z"/>
    <path class="cls-2" d="m122.16,126.6c0,.14-.01.26-.01.39h-13.37c.01-.13.01-.25.01-.39,0-26.33-21.34-47.68-47.68-47.68S13.43,100.27,13.43,126.6s21.35,47.69,47.69,47.69c16.45,0,30.94-8.34,39.51-21.01l6.06,13.92c-11.17,12.55-27.45,20.45-45.57,20.45-19.3,0-36.5-8.96-47.69-22.94v64.17H.06V65.56h13.37v22.94c11.18-13.98,28.38-22.94,47.69-22.94,33.71,0,61.04,27.34,61.04,61.04Z"/>
    <path class="cls-2" d="m216.16,88.89c-11.19-13.98-28.38-22.95-47.68-22.95-13.06,0-25.15,4.12-35.08,11.11v17.66c8.71-9.47,21.2-15.41,35.08-15.41,26.33,0,47.68,21.35,47.68,47.68s-21.35,47.68-47.68,47.68c-21.31,0-39.34-13.99-45.45-33.28h-13.86c6.48,26.76,30.55,46.64,59.3,46.64,19.3,0,36.5-8.97,47.68-22.95v22.95h13.36v-117.17h-13.36v18.02Z"/>
    <path class="cls-2" d="m464.52,86.15l-7.74-7.74-3.29-2.7c-8.99-6.17-20.41-9.41-32.3-9.41-33.3,0-60.29,26.99-60.29,60.29s26.99,60.29,60.29,60.29c10.28,0,19.96-2.58,28.44-7.12v-15.64c-7.91,5.99-17.76,9.57-28.44,9.57-12.27,0-23.45-4.69-31.83-12.39l66.54-66.54,8.61-8.62Zm-83.66,64.76c-4.29-7.1-6.76-15.41-6.76-24.31,0-26,21.08-47.09,47.09-47.09,8.49,0,16.46,2.25,23.33,6.19.33.18.66.38.98.57l-64.65,64.65Z"/>
    <line class="cls-1" x1="106.69" y1="167.2" x2="100.62" y2="153.28"/>
  </g>
</svg>